<?xml version="1.0" encoding="UTF-8"?>
<svg id="a" data-name="Layer 1" xmlns="http://www.w3.org/2000/svg" width="650.8" height="636.48" viewBox="0 0 650.8 636.48">
  <path d="M211.74,81.32c5.81-3.22,12.95.81,13.21,7.45.65,16.63-.05,42.9-.06,48l-.27,124.51c0,3.81-.51,3.95,1.61,6.08,2.42-1.53,4.11-5.61,5.27-8.27,16.52-37.92,45.09-83.7,92.82-79.68,3.22.27,12.21,1.23,15.03,2.35,66.82,26.54,79.65,117.9,71.62,180.31-3.69,27.83-13.43,56.96-29.71,79.62-3.04,4.28-5.29,9.64-9.17,12.62-1.28,2.13-2.86,3.74-4.5,5.58-24.55,27.31-61.19,42.62-97.88,34.21-21.34-4.9-33.81-15.32-46.5-30.03-4.51-5.23-12.68-5-17,.38-.13.16-.26.33-.4.5-8.5,10.72-25.78,4.71-25.8-8.97-.09-71.43-.07-222.7-1.44-308.77-.21-13.42-3.58-22.8-6.73-32.06-1.59-4.69.15-9.84,4.2-12.68,7.81-5.47,24.43-14.9,35.69-21.14ZM295.48,482.01c21.36-3.56,25.9-7.43,37.1-21.62,39.34-49.85,45.41-124.64,33.42-185.01-5.36-26.98-25.4-74.44-59.07-70.79-21.27,3.19-33.39,16.45-45.99,33.14-12.09,16.02-36.68,50.55-36.04,74.93-1.14,7.6-2.93,86.12.36,98.09,2.82,18.79,20.78,52.85,36.72,63.91,7.01,4.86,24.77,8.8,33.49,7.35Z" style="fill: #716055;"/>
</svg>