<?xml version="1.0" encoding="UTF-8"?>
<svg id="b" data-name="Layer 2" xmlns="http://www.w3.org/2000/svg" width="735.57" height="1041.77" viewBox="0 0 735.57 1041.77">
  <g id="c" data-name="Layer 1">
    <g id="d" data-name="iuZ4kS">
      <g>
        <path d="M186.92,1041.77H3.72l10.92-132.99c2.99-36.45,4.95-71.52,5.17-107.98.16-26.17-1.4-50.96-2.64-77.09-2.17-45.66-3.4-96.12,5.15-141.09l15.51-81.63,22.93-111.27c10.77,1.4,19.85,2.28,29.57,2.8l21.47,1.14,17.79.43c8.2.2,15.59-1.2,24.79-2.67l-.7,21.55c-2.34,72.09,4.7,213.63,20.72,284.05,12.42,54.62,12.95,94.81,12.86,150.88l-.32,193.87Z" style="fill: #d3b9a2;"/>
        <path d="M735.57,462.75v11.76l-191.65-114.11-8.44,7.96c.91,7.34.66,14.5-2.34,22.15l41.2,24.65,161.23,95.43v11.56l-103.43-60.88-104.64-62.39c-7.72,7.25-17.57,10.09-27.77,6.64-8.49-2.88-15.6-10.89-17.02-20.96-7.46-3.69-13.68-7.69-20.89-12.26-44.57-28.22-90.39-53.07-137.45-77l-47.82-24.31c-6.5-3.3-14.2-3.84-20.83-7.44l-38.23-20.82c-5.61-3.05-7.24-12.24-4.42-17.41l7.65-14.02-19.33-10.94c-9.06,22.15-16.15,43.57-21.54,66.9-8.54,36.93-14.73,73.69-18.8,111.44-.44,4.03-2.17,8.41-2.27,12.25-2.12,76.26,1.05,151.78,7.86,227.74,2.65,29.55,7.45,57.33,14.02,86,6.12,26.73,9.96,52.7,10.25,80.17l.98,94.02-.36,162.92h-4.62l.32-193.87c.09-56.07-.43-96.27-12.86-150.88-16.02-70.42-23.06-211.96-20.72-284.05l.7-21.55c-9.21,1.47-16.59,2.87-24.79,2.67l-17.79-.43-21.47-1.14c-9.71-.52-18.79-1.39-29.57-2.8l-22.93,111.27-15.51,81.63c-8.54,44.97-7.32,95.43-5.15,141.09,1.24,26.13,2.8,50.92,2.64,77.09-.22,36.45-2.18,71.53-5.17,107.98l-10.92,132.99H0l11.56-151.95c2.57-33.81,4.96-66.28,3.59-100.04l-3.56-88.07c-1.83-45.2-.71-89.24,8.48-133.64l37.07-179.06c-2.92-2.97-4.68-7.08-3.42-11.29,2.58-8.66,5.8-17,8.01-25.7l3.95-15.55,3.4-13c5.37-20.52,12.56-57.73,11.82-78.2l-.54-14.84c-.34-9.24-3.38-18.85-6.01-27.58l-6.37-21.11c-4.78-15.84,4.61-30.14,18.75-36.96,8.15-3.93,16.21-9.18,23.59-14.09.44-2.74.9-6.78,2.45-8.4l21.54-22.52,4.84-1.49c12.41-23.78,37.05-50.43,58.57-66.29,11.33-8.35,21.69-17.41,34.86-22.1l12.01-4.28c6.38-2.27,23.13-10.03,30.15-2.21,5.92,6.59,7.93,14.97,7.35,23.48-2.31,9.86-6.45,18.36-11.12,27.12l-28.75,53.97c12.89,11.54,25.47,21.75,39.1,32.14l61.85,47.16c45.11,38.21,91.77,73.31,141.23,105.57,4.1,2.67,9.31,3.37,13.53,5.57,9.29-2.17,18.71,2.3,22.98,11.12,6.65.24,12.73,1.88,17.72,6.33,10.09,9.01,13.61,22.47,9.68,35.69l187.27,111.18ZM236.79,107.41l29.75-54.58c3.98-7.3,7.89-14.06,10.1-22.1s1.03-19.22-6.28-24.62c-3.87-2.86-10.99-1.39-15.25.23-7.44,2.84-14.92,4.57-21.96,8.23-38.27,19.88-69.56,50.06-91.51,87.52,18.94,19.82,48.84,34.64,72.99,49.26,6.92-15.34,14.05-29.06,22.17-43.95ZM70,337.76c-2.24,5.04-3.54,9.59-3.32,14.86,29.43,5.6,58.24,7.07,87.8,2.85,1.01-.14,3.29.81,3.36,1.66s-1.66,2.75-2.58,2.87c-34.92,4.52-55.57,2.85-90.33-2.98l-6.35,19.82c-.84,2.62-.59,6.51,1.2,8.58l35.77,2.69,16.07.94c15.06.88,29.64.67,44.42-2.67,2.41-31.85,7.51-62.29,13.63-93.56,6.37-32.53,14.91-63.66,27.84-94.74-25.35-14.3-49.5-29.68-72.53-47.51-5.5-4.26-9.8-9.2-13.43-14.84-8.21,4.87-16.36,9.72-24.74,14.11-12.51,6.54-17.9,20.06-13.81,33.61l5.98,19.84c2.52,8.35,5.12,17.64,5.43,26.36l.58,16.25c.74,20.65-6.78,61.71-13.27,83.45,7.77,1.51,16.3,2.82,24.81,3.52l32.05,2.62c9.85.81,20.55-.72,29.86-2.58.96-.19,2.69.7,3.18,1.29s-1.35,2.77-2.11,2.94c-24.94,5.54-58.48,1.01-84.5-2.62-.91-.13-3.09-1.06-3.4-.36l-1.6,3.6ZM531.75,359.67c7.33-6.52,10.52-14.72,8.46-23.88-1.68-7.48-6.95-14.87-15.95-17.12-5.75,8.97-11.3,18.03-14.41,28.3,9.76.94,16.74,5.01,21.9,12.7ZM523.35,363.56c-3.44-5.85-9.64-7.98-15.52-5.45,3.51,4.92,9.39,7.34,15.52,5.45ZM521.07,391.67c4.79-5.29,7.22-12.08,5.49-18.96-9.65,1.2-18.28.11-25.21-6.75-2.16,2.54-8.57,21.78-8.53,21.9,1.37,4.74,7.88,9.4,12.48,10.01,6.27.84,11.35-1.32,15.78-6.2Z"/>
        <path d="M70,337.76l1.6-3.6c.31-.7,2.49.23,3.4.36,26.02,3.64,59.57,8.17,84.5,2.62.76-.17,2.6-2.35,2.11-2.94s-2.22-1.48-3.18-1.29c-9.3,1.86-20.01,3.39-29.86,2.58l-32.05-2.62c-8.51-.7-17.03-2.01-24.81-3.52,6.49-21.74,14.01-62.81,13.27-83.45l-.58-16.25c-.31-8.72-2.92-18.02-5.43-26.36l-5.98-19.84c-4.08-13.55,1.3-27.06,13.81-33.61,8.38-4.38,16.54-9.23,24.74-14.11,3.64,5.64,7.93,10.59,13.43,14.84,23.03,17.84,47.19,33.21,72.53,47.51-12.93,31.08-21.47,62.21-27.84,94.74-6.12,31.27-11.22,61.72-13.63,93.56-14.78,3.34-29.36,3.56-44.42,2.67l-16.07-.94-35.77-2.69c-1.79-2.08-2.04-5.97-1.2-8.58l6.35-19.82c34.76,5.83,55.41,7.5,90.33,2.98.92-.12,2.65-2.01,2.58-2.87s-2.35-1.81-3.36-1.66c-29.56,4.22-58.37,2.76-87.8-2.85-.23-5.27,1.07-9.83,3.32-14.86ZM86.51,323.17c6.82-23.88,14.74-66.01,11.54-88.49-.11-.75-1.73-2.51-2.15-2.12-2.7,2.49-.77,11.55-1.51,21.44-1.72,22.83-6.41,46.66-11.74,68.69-.21.87.82,2.67,1.39,3.07s2.15-1.48,2.46-2.59ZM100.61,325.12c5.46-22.57,9.57-44.31,11.08-67.3,1.88-28.67-4.52-24.12-4.39-20.69.83,22.97-2.12,47.47-6.98,70.27l-3.61,16.96c-.12.57,1.12,2.15,1.48,2.58s2.28-1.24,2.42-1.81ZM114.79,325.84l4.23-21.7c4.24-21.74,7.27-43.16,5.46-65.43-.09-1.07-1.6-3.17-2.38-2.74-.63.34-1.91,2.21-1.84,3.33,2.45,37.57-4.39,52.26-9.52,86.33-.16,1.06,1.72,3.45,2.31,2.88.47-.46,1.61-2.01,1.74-2.67ZM125.36,326.17c2.6-18.09,5.83-34.32,9.83-51.6,1.62-7,5.78-35.08,1.04-37.81-.63-.36-2.15,1.72-2.13,2.66.3,10.4-1.19,22.48-3.18,33.66l-9.36,52.7c-.14.8.86,2.72,1.48,3.15s2.14-1.55,2.31-2.75ZM138.72,326.22c1.31-17.78,3.71-33.36,8.13-50.08,3.01-11.39,4.37-26.03,3.43-36.55-.09-.96-2.45-1.72-2.7-1.14-1.77,4.09-1.18,18.95-3.84,30.57-4.4,19.2-8.02,39.06-9.56,58.64-.07.94,2.04,2.29,2.85,2.29s1.57-2.03,1.69-3.72ZM152.86,326.41c1.81-20.08,4.6-37.99,9.01-57.26,1.91-8.36,2.29-20.65,2.15-28.11-.02-.84-2.62-1.92-2.84-1.29-2.15,6.03-.78,18.23-3.8,30.89-1.68,7.05-12.52,57.42-6.42,57.97.56.05,1.85-1.55,1.9-2.2Z" style="fill: #fff;"/>
        <path d="M236.79,107.41c-8.12,14.89-15.25,28.61-22.17,43.95-24.14-14.62-54.05-29.44-72.99-49.26,21.95-37.46,53.24-67.65,91.51-87.52,7.04-3.66,14.52-5.39,21.96-8.23,4.26-1.63,11.38-3.09,15.25-.23,7.31,5.4,8.61,16.19,6.28,24.62s-6.12,14.8-10.1,22.1l-29.75,54.58Z" style="fill: #fff;"/>
        <path d="M114.79,325.84c-.13.66-1.27,2.21-1.74,2.67-.59.57-2.47-1.82-2.31-2.88,5.13-34.07,11.97-48.76,9.52-86.33-.07-1.12,1.21-2.99,1.84-3.33.78-.43,2.29,1.67,2.38,2.74,1.82,22.27-1.21,43.69-5.46,65.43l-4.23,21.7Z"/>
        <path d="M138.72,326.22c-.12,1.69-.88,3.71-1.69,3.72s-2.92-1.34-2.85-2.29c1.54-19.58,5.16-39.44,9.56-58.64,2.66-11.62,2.08-26.48,3.84-30.57.25-.58,2.61.17,2.7,1.14.94,10.53-.42,25.17-3.43,36.55-4.42,16.73-6.82,32.31-8.13,50.08Z"/>
        <path d="M86.51,323.17c-.32,1.11-1.89,2.99-2.46,2.59s-1.6-2.2-1.39-3.07c5.33-22.04,10.02-45.86,11.74-68.69.74-9.88-1.19-18.95,1.51-21.44.42-.39,2.05,1.37,2.15,2.12,3.2,22.48-4.73,64.61-11.54,88.49Z"/>
        <path d="M125.36,326.17c-.17,1.21-1.69,3.18-2.31,2.75s-1.63-2.35-1.48-3.15l9.36-52.7c1.99-11.18,3.48-23.26,3.18-33.66-.03-.94,1.49-3.02,2.13-2.66,4.74,2.73.58,30.81-1.04,37.81-4,17.28-7.23,33.52-9.83,51.6Z"/>
        <path d="M100.61,325.12c-.14.57-2.05,2.24-2.42,1.81s-1.61-2.01-1.48-2.58l3.61-16.96c4.86-22.8,7.81-47.3,6.98-70.27-.12-3.42,6.28-7.97,4.39,20.69-1.51,23-5.62,44.73-11.08,67.3Z"/>
        <path d="M152.86,326.41c-.06.65-1.35,2.25-1.9,2.2-6.1-.55,4.74-50.93,6.42-57.97,3.02-12.66,1.65-24.86,3.8-30.89.22-.63,2.82.46,2.84,1.29.14,7.46-.23,19.75-2.15,28.11-4.41,19.27-7.2,37.18-9.01,57.26Z"/>
      </g>
    </g>
  </g>
</svg>