<?xml version="1.0" encoding="UTF-8"?>
<svg id="b" data-name="Layer 2" xmlns="http://www.w3.org/2000/svg" width="857.33" height="784.31" viewBox="0 0 857.33 784.31">
  <g id="c" data-name="Layer 1">
    <g id="d" data-name="HRLhii">
      <path d="M640.46,712.95c-96.95,70.28-218.13,92.07-331.64,49.94-65.27-24.22-122.9-66.03-166.31-120.45-42.01-52.65-67.98-108.56-81.43-174.29-2.53-.4-6.19.81-7.09,3.24-6.94,18.71-12.25,37.92-21.97,55.22-4.85,8.64-18.1,5.92-24.89,2.47-5.6-2.84-8.28-6.31-6.66-12.27,4.87-18,9.47-35.34,13.24-53.75,13.49-66.04,6.24-119.26-13.02-182.82-.71-2.36-1.04-6.57.38-8.91,3.81-6.26,24.58-12.39,30.7-1.28,9.51,17.26,14.62,36.04,21.81,54.58.82,2.11,4.31,2.69,6.58,1.77,10.4-67.17,37.36-130.03,79.42-183.62,50.04-63.76,120.3-109.93,198.57-131.02,57.78-15.57,117.82-15.62,175.61-.48,147.88,38.76,258.17,164.93,282.23,315.42,1.87.95,6.67.25,7.41-1.75,6.83-18.59,12.46-37.28,21.66-54.65,4.71-8.91,16.91-7.03,24.26-3.97,5.84,2.43,9.32,5.74,7.57,12.29-4.84,18.05-9.82,35.61-13.49,54.15-6.29,31.83-8.37,63.38-4.71,95.67,3.38,29.82,9.86,58.26,17.9,86.96,1.99,7.12-.58,11.28-7.66,14.36-6.39,2.78-18.51,5.34-23.08-2.72-9.88-17.41-15.02-36.79-22.49-55.4-1.21-3.02-5.47-4.14-8.59-3.3-16.37,96.35-75.35,187.38-154.3,244.61ZM729.45,593.92c13.32-21.54,24.18-43.74,33.44-67.19-9.44,4.31-30.36-2.88-26.92-13.55,17.33-62.53,27.06-109.96,13.91-175.06-3.57-17.68-8.4-34.22-13.58-51.3-1.99-6.57.79-11.44,6.9-14.12,6.83-3,14.61-5.22,21.38-1.3.36.21,1.89.72,1.77.32l-1.08-3.62c-33.76-113.07-140.16-214.23-261.13-242.3-41.51-9.63-83.37-12.17-125.58-5.87-137.55,21.04-250.43,122.17-290.15,254.81,5.42-3.77,9.24-5.54,15.02-5.58,8.4,2.19,21.16,5.19,17.71,16.54-26.5,87.26-26.23,137.56.23,224.89,1.91,6.31-.36,10.42-6.11,13.31-6.72,3.38-13.88,5.58-21.42,2.34,11.58,31.83,27.27,59.82,46.07,86.72,45.54,65.2,110.94,114.4,186.74,139.09,154.77,50.42,319.07-22.76,402.79-158.14Z"/>
    </g>
  </g>
</svg>