<?xml version="1.0" encoding="UTF-8"?>
<svg id="b" data-name="Layer 2" xmlns="http://www.w3.org/2000/svg" width="1449.44" height="1385.07" viewBox="0 0 1449.44 1385.07">
  <g id="c" data-name="Layer 1">
    <path d="M1418.11,753.38c-1.16-10.37-1.96-20.78-2.45-31.26.41-9.83.63-19.69.63-29.58,0-7.22-.12-14.42-.34-21.6,1.42-25.33,4.69-51.24,9.88-78.09,4.97-25.6,11.25-49.57,17.91-74.95,1.49-5.67,2.98-11.35,4.47-17.14,5-19.89-5.95-27.46-18.53-32.69-5.12-2.13-15.37-5.61-26.37-4.96-9.31.55-17.06,4.07-22.48,10.08-5.66-16.93-11.98-33.68-18.98-50.24-34.88-82.47-84.81-156.53-148.4-220.12s-137.65-113.52-220.12-148.4C907.92,18.32,817.22,0,723.75,0s-184.17,18.32-269.58,54.44c-82.47,34.88-156.53,84.81-220.12,148.4-63.59,63.59-113.52,137.65-148.4,220.12-6.9,16.31-13.15,32.82-18.74,49.5-5.72-5.77-13.9-8.97-23.76-9.17-16.16-.31-34.06,7.6-39.96,17.62-4.4,7.41-3.13,17.98-1.66,23.14,15.05,51.02,26.31,99.54,30.73,150.15-.69,12.72-1.05,25.5-1.05,38.33,0,16.01.55,31.93,1.62,47.76-1.7,22.86-4.9,46.54-9.86,71.39-6.11,31.17-13.83,60.89-21.87,91.18-3.67,14.1,1.81,25.02,16.28,32.44,8.04,4.12,17.93,6.61,26.45,6.65.08,0,.17,0,.25,0,12.61,0,22.49-5.19,27.93-14.68,4.22,11.7,8.76,23.32,13.63,34.83,34.88,82.47,84.81,156.53,148.4,220.12,63.59,63.59,137.65,113.52,220.12,148.4,85.41,36.12,176.1,54.44,269.58,54.44s184.17-18.32,269.58-54.44c82.47-34.88,156.53-84.81,220.12-148.4s113.52-137.65,148.4-220.12c5.19-12.26,9.99-24.64,14.45-37.12.54,1.02,1.09,2.04,1.65,3.05,10.53,18.77,34.22,16.5,51.31,8.85,16.78-7.51,22.96-19.75,18.4-36.36-13.36-49.12-23.49-92.94-29.55-147.16ZM1081.51,1189.85c-37.04,26.71-76.94,49.17-119.35,67.11-75.49,31.93-155.71,48.12-238.42,48.12s-162.92-16.19-238.41-48.12c-43.04-18.2-83.48-41.05-120.98-68.27-42.92-36.1-80.78-78.04-112.78-125.04-30.31-44.46-52.73-86.19-69.79-130.04,7.9-.5,16.31-3.03,24.98-7.55,14.12-7.37,19.5-19.59,15.13-34.42-22.91-77.67-32.73-134.3-32.83-189.36-.1-55.45,9.62-112.07,32.47-189.26,2.35-7.79,1.79-14.89-1.66-21.09-6.77-12.15-22.33-16.31-33.69-19.35l-2.5-.67-1.41.02c-3.06.05-5.88.35-8.52.86,32.31-97.43,87.48-183.33,158.3-251.24,46.22-38.54,97.57-69.86,153.25-93.42,75.49-31.93,155.7-48.12,238.41-48.12s162.92,16.19,238.42,48.12c41.33,17.48,80.28,39.25,116.52,65.07,12.65,10.39,24.95,21.31,36.88,32.73,37.92,36.33,70.96,76.74,98.18,120.12,25.62,40.81,45.47,83.27,59.09,126.39-8.41-.35-17.81,1.83-28.16,6.53-15.24,6.92-21.58,20.39-16.96,36.05,8,26.96,16.32,55.86,22.45,86.76,10.17,51.45,12.51,98.57,7.34,148.31-4.75,45.72-15.55,91.51-30.31,146.19-2.86,9.3.21,18.77,8.45,26.01,7.8,6.85,19.47,11.11,30.54,11.98-12.1,29.77-25.6,57.59-40.92,84.35l-7.86,13.03c-36.44,60.38-82.71,113.97-135.9,158.22Z" fill="#b02d4a"/>
  </g>
</svg>
