<?xml version="1.0" encoding="UTF-8"?>
<svg id="a" data-name="Layer 1" xmlns="http://www.w3.org/2000/svg" width="1266.66" height="991.72" viewBox="0 0 1266.66 991.72">
  <g id="b" data-name="Layer 1">
    <g id="c" data-name="tkHz6i1">
      <g>
        <path d="M619.54,436.66c-13.95-3.46-.9-18.12-8.18-23.79-1.68,12.32-6.4,16.87,3.41,25.64,16.81,15.02-6.57,24.85,8.24,34.65-2.94.69-5.98-.32-8.29-2.23-1.7-1.4-2.83-5.04-2.54-7.52l1.2-10.58c-13.71,23.63,3.53,19.58,3.51,33.33-.01,7.59-7.83,11.58-6.89,9.08l.57-1.53c2.35-6.27.97-11.88-5.18-14.96l-1.54-.77c-.34-.17-1.42-.03-1.36.35.08.57.43,2.18.8,2.82,9.86,17.13-7.36,18.28,1.04,29.64-2.32.33-5.75-1.07-6.83-2.81-3.83-6.19,2.74-12.29-.49-16.58l-5.88,13.34c-.76,1.72-.67,5.63.26,7.33,2.05,3.72,10.28,3.29,8.32,4.81-4.47,3.46-11.58,1.65-15.01-1.82-7.3-7.39,1.31-16.07-2.92-20.91-7.08,9.25-1.89,22.26-11.47,25.49-4.46,1.5-10.03,1.75-13.21-2.7l5.57-.68c1.28-.16,4.06-1.52,4.72-2.62s.89-3.78.56-5.08l-3.08-11.94c-4.92,2.93-3.84,7.6-1.49,12.68-3.59-.83-6.63-3.62-7.63-6.46-3.1-8.79,9.18-13.57,1.92-21.71-9.53,25.47-21.95,48.4-35.18,71.61-5.33,9.35-9.75,18.13-16.56,26.19-19.43,22.99-51.49,28.01-76.74,11.35-9.29-6.13-16.94-13.76-23.98-22.66-12.91-16.34-23.62-33.35-33.99-51.5l-28.54-49.94c-21.42-37.48-51.26-26.29-87.36-92.78l-16.12-29.68c-3.48-6.41-9.37-8.7-16.62-8.38-8.5.38-15.83-4.44-16.73-13.21-1.55-15.1,4.38-19.67-5.42-33.38-2.98-4.17-7.06-9-8.67-13.79l-4.62-13.79c-.95-2.85-.52-6.94,1.62-8.8,12.91-11.29,53.48,42.97,61.02,52.86,11.99,15.74,24.34,30.14,38.81,43.79,18.45,17.41,36.62,34.05,56.34,49.95,6.09,4.91,13.57,7.65,19.93,12.06,7.35,5.09,12.14,12.03,18.86,17.92l52.51,46c11,9.64,20.79,19.19,30.83,29.75,5.77-7.62,10.07-15.8,11.58-25.31.84-5.3-14.15-17.58-5.58-32.74,6.28-11.11,18.26-13.58,12.67-17.04-15.36-9.5-29.93-19.47-44.07-30.67-19.86-15.73-30.52-19.61-49.08-38.55-11.3-11.53-21.6-23.21-32.1-35.48-10.49-12.25-17.1-6.01-26.81-18.96-5.38-7.19-10.67-13.55-16.49-20.54-10.43-12.53-8.92-10.37-5.99-26.86.27-1.49,4.75-1.09,6.08-.09,16.08,12.08,29.86,25.45,45.08,38.68,15.74,13.69,32.92,24.85,50.69,35.64,14.11,8.57,25.14,18.7,37.92,28.92,13.18,10.54,48.55,29.15,65.99,34.5,2.44-4.87,4.62-11.49,1.15-16.31-2.58-3.59-12.95-1.29-18.12-6.06-1.3-1.2-2.2-5.17-1.8-7.11l2.67-12.94c.55-2.68.52-5.96-.57-8.5-3.62-8.38,8.13-7.12,11.93-17.05-1.04-2.27-3.83-5.52-3.96-7.6-.56-9.13,6.52-16.17,14.4-19.44,7.71-3.21,15.76-3.12,24.11-3.27,12.98-.23,24.92,3.36,34.32,12.36,20.83,19.94,2.63,35.65,21.68,53.97,16.62,15.98-3.19,27.48,10.18,38.51,6.42,5.3,8.73,13.31,5.23,21.13-1.93,4.31-1.1,8.43,1.37,12.77h0ZM238.8,334.6c1.03.76,3.55.17,4.43-.77,3.54-3.77,6.66-6.9,10.29-10.33.7-.66,1.24-2.81.68-3.53l-20.66-26.4c-8.16-10.43-28.12-33.54-39.83-37.44-.88-.29-2.47,2.27-2.14,3.11s1.33,2.95,2.14,3.45l6.74,4.08-5.8,2.99c3.43,5.93,7.03,11.53,10.95,16.91,10.71,14.74,4.48,21.33,5.61,34.08,1.29,14.56,16.14,5.38,27.58,13.85h.01ZM543.07,398.36c-8.22-4.24-9.59-14.22-4.22-21.31,10.55-13.94-3.53-16.4,1.8-28.91,2.18-5.1,1.33-9.9-3.19-13.49-6.5-5.16-14.02-4.31-15.73-7.31-1.47-2.57,1.36-9.32.1-12.8-6.95,9.37-1.87,17.1-12.94,24.81l-5.22,3.63c9.08,7.55-2.36,6.44,6.88,13.81,6.16,4.92-6.07.44-7.39,8.45-.34,2.07.53,5.96,3.44,6.48,8.36,1.52,17.36,1.3,25.28,1.03,8.82-.29-6.16,4.04-6.36,6.07l-1.49,14.78c-.47,4.61.7,6.91,4.94,8.66,18.07,7.44,24.09,22.31,21.3,20.64-3.75-2.25-6.66-7.45-15.67-12.3-23.36-12.58-34.83-12.06-62.8-28.88-8.88-5.34-18.6-9.53-26.27-16.48-11.25-10.18-22.05-18.92-34.96-27.03-18.2-11.44-36.11-22.69-52.22-37.03l-40.29-35.85c-.95-.28-1.1-.03-1.18,1.33l16.59,16.61c2.35,2.35,4.04,4.53,5.29,7.95-4.01,1.92-18.36-15.91-23.32-18.44,1.23,3.72,3.25,6.18,5.53,8.96l17.05,20.78c10.18,12.41,14.92,5.27,26.59,18.23l28.74,31.92c7.16,7.95,14.92,15.05,23.7,21.14,12.92,8.96,24.96,17.68,37.33,27.38s24.79,17.48,37.85,25.68c8.14,5.12,27.12,15.99,29.47,24.82l-12.08-7.86c-.46-.3-1.64-.62-2-.71-1.53-.4-.03,30.48,41.49,33.93,2.32.19,4.95-2.31,5.59-4.35,5.5-17.27-1.57-16.91,5.72-28.12,2.62-4.03,2.9-9.02-.34-12.69-11.79-13.32,6.34-24.9-8.61-35.45-4.59-3.24-7.09-7.89-8.46-13.55-3.17,4.35-1.09,10.09,3.43,12.58,5.71,3.16,6.86,10.86,3.29,14.93-3.16,3.6,2.1-7.54-6.63-12.05h-.03ZM533.94,329.44l-1.78-12.09c-2.55,4.13-2.42,9.38,1.78,12.09ZM553.98,347.02c-.86-.08-2.64.21-3.75.67-4.32,1.76-6.44,9.07-2.73,12.36,1.57,1.4,6.19-.64,7.37-2.23,3.75-5.01,1.11-10.63-.9-10.8h.01ZM602.83,391.21c2.98-6.7,3.45-13.16-.71-18.99l-1.38,12.54c-.19,1.74.89,4.65,2.09,6.45h0ZM412.6,469.17l113.33,65.34,15.32-28.94c-19.97-6.34-38.19-13-57.6-21.24-1.58,3.67-2.88,8.37-2.83,12.66l45.1,37.53-113.32-65.35Z"/>
        <path d="M706.12,371.84c-2.36,7.38-16.57,3.89-20.13,8.26-2.92,3.58-1.83,11.22-.71,14.91,1.54,5.06,46.96-20.66,50.57-22.67,9.79-5.46,18-11.23,25.85-19.12,7.98-8.04,17.28-13.8,26.84-20.04,18.28-11.92,36.53-22.95,52.9-37.52,14.16-12.6,27.14-25.12,42.16-36.7,1.77-1.37,7.03-1.55,7.44.48,2.68,13.35,3.08,14.92-3.92,23.17-6.9,8.14-13.23,15.77-19.55,24.24-9.52,12.77-15.55,5.63-27.04,18.73l-24.2,27.58c-19.7,22.45-33.2,27.6-54.2,44.35-15.45,12.33-30.81,23.06-48,33.68,2.4,2.48,4.89,4.97,7.53,7.13,10.31,8.45,12.14,22.48,3.96,33.33-2.83,3.76-3.35,7.55-1.97,12.22,2.26,7.67,4.9,15.19,10.3,21.43,6.38-6.91,11.99-13.41,19.05-19.55l57.95-50.36c5.34-4.64,10.07-9.08,14.58-14.4,14.4-17.01,23.43-14.09,40.17-29.38l42.15-38.49c17.28-15.78,32.08-32.67,46.08-51.33,7.72-10.29,44.83-58.8,57.86-49.77,1.65,1.14,3.27,5.27,2.54,7.52-7.33,22.78-3.63,13.47-15.25,31.5-7.04,10.92-3.09,17.03-3.75,30.11-.49,9.64-8.39,14.94-17.61,14.21-7.22-.57-12.24,2.25-15.65,8.41l-21.23,38.38c-12,21.69-28.85,38.6-49.62,51.93-22.92,14.72-28.47,23.36-41.56,47.01-13.03,23.53-25.72,46.34-40.67,68.72-9.09,13.61-18.75,26.01-31.22,36.4-15.91,13.25-36.69,18.27-56.33,11.45-14.78-5.14-26.68-15.66-34.27-29.36l-25.16-45.46c-9.77-17.65-16.99-35.88-22.17-55.29-5.04-18.87-4.53-37.32,1.13-55.84,2.12-6.94,3.4-13.93,4.52-20.93l-15.6-1.09c-4.42-.31-17.01.61-15.41-3.56,14.08-36.67-5.52-70.83,27.33-84.12,18.46-7.47,48.86-7.78,55.85,15.29,2.01,6.62-4.13,7.27-4.3,10.51-.38,7.27,15.89,10.18,12.5,17.19-4.98,10.3,3.15,17.84.28,26.84h-.02ZM989.83,319.91c.33-14.69-3.69-20.01,6.06-34.05,3.48-5,6.68-10.02,10-15.36l-4.37-4.1c3.78-1.96,10.14-6.52,6.94-9.79-3.51-3.58-24.96,18.23-28.59,22.35-11.08,12.56-20.89,25.38-31.25,38.61-.93,1.19-2.74,3.82-1.68,4.89l11.1,11.2c5.11,5.16,2.68-4,20.46-3.62,6.07.13,11.18-3.13,11.34-10.13h0ZM694.98,442.53c-5.79,3.16-9.29,5.86-14.18,9.37-1.29-5.43,13.67-15.72,18.51-18.7,14.94-9.17,29.22-17.98,43.35-28.36l42.43-31.18c10.14-7.45,19.19-15.74,27.49-25.14l23.35-26.44c12.05-13.64,18.74-7.47,26.8-18.04,7.02-9.21,13.97-17.48,21.57-26.27.95-1.1,1.6-3.12.92-4.19l-18.18,16.44c-.48.43-1.82,1.01-2.29,1.1s-1.36-.55-1.31-1.03.64-2.18.97-2.51l17.67-17.75c1.25-1.26,2.25-3.43,2.52-4.73-14.45,11.37-26.55,23.67-40.25,35.61-16.63,14.5-34.7,26.16-53.28,37.96-11.8,7.49-22.04,15.25-32.04,24.91-6.61,6.38-14.75,10.46-22.64,15.19-16.94,10.15-34.09,18.03-52.59,24.84-12.05,4.44-22.22,10.27-31.91,18.78.65-10.95,19.12-18.57,26.82-22.98,2.47-1.42.7-8.87-.26-10.92l-24.02,2.03c-2.32.2-3.99,1.79-4.35,4.2-1.04,6.91-2.15,13.39-4.08,19.99-5.54,18.91-4.76,37.69,1.07,56.47,1.07,3.45,2.51,6.29,7.03,5.6,19.78-3,38.7-10.27,40.9-34.24h-.02ZM701.34,363.71c-2.35-5.05-10.08-3.54-8.63-4.83l1.63-1.45c10.64-9.47-2.61-4.44,7.4-14.24l-5.36-3.96c-9.63-7.1-6.39-14-11.62-23.93-.51,3.87-.21,7.3-.92,11.05-.66,3.47-7.1,4.2-10.17,4.14l.49-9.82c.02-.44-1.27-.95-1.4-.5l-4.43,16.03c-.15.55-2.36,4.69-2.44,5.44-.96,8.58,1.65,18.52,3.1,26.78.25,1.43,2.94,3.9,4.63,4.03,6.13.47,33.48,3.61,27.73-8.75h0ZM679.96,377.52l-8.39-3.08c1.41,5.01,3.05,8.03,6.92,11.71l1.48-8.62h-.01ZM677.57,532.8c14.24-12.67,27.75-23.71,42.53-35.26.88-4.37-.24-9.02-2.25-13.31-17.85,8.12-36.33,14.6-55.25,19.69-.6.16-1.87,1.04-2.14,1.48s-.06,1.9.27,2.51l12.98,24.63c.46.88,2.9,1.13,3.87.27h-.01Z"/>
        <path d="M543.07,398.36c8.73,4.5,3.47,15.64,6.63,12.05,3.57-4.07,2.43-11.77-3.29-14.93-4.51-2.49-6.59-8.23-3.43-12.58,1.37,5.66,3.87,10.31,8.46,13.55,14.94,10.55-3.18,22.13,8.61,35.45,3.25,3.67,2.96,8.67.34,12.69-7.29,11.21-.22,10.86-5.72,28.12-.65,2.03-3.27,4.54-5.59,4.35-41.52-3.45-43.02-34.33-41.49-33.93.36.09,1.54.41,2,.71l12.08,7.86c-2.35-8.82-21.33-19.7-29.47-24.82-13.06-8.21-25.69-16.16-37.85-25.68s-24.41-18.42-37.33-27.38c-8.78-6.09-16.54-13.19-23.7-21.14l-28.74-31.92c-11.67-12.96-16.41-5.83-26.59-18.23l-17.05-20.78c-2.28-2.78-4.3-5.23-5.53-8.96,4.96,2.53,19.31,20.37,23.32,18.44-1.25-3.43-2.95-5.61-5.29-7.95l-16.59-16.61c.09-1.35.23-1.61,1.18-1.33l40.29,35.85c16.12,14.34,34.02,25.59,52.22,37.03,12.9,8.11,23.71,16.85,34.96,27.03,7.68,6.95,17.4,11.14,26.27,16.48,27.97,16.83,39.44,16.3,62.8,28.88,9.01,4.85,11.92,10.05,15.67,12.3,2.78,1.67-3.24-13.2-21.3-20.64-4.25-1.75-5.41-4.05-4.94-8.66l1.49-14.78c.21-2.03,15.18-6.36,6.36-6.07-7.91.26-16.91.48-25.28-1.03-2.91-.53-3.78-4.42-3.44-6.48,1.33-8.01,13.56-3.53,7.39-8.45-9.24-7.37,2.21-6.27-6.88-13.81l5.22-3.63c11.08-7.71,5.99-15.44,12.94-24.81,1.27,3.48-1.56,10.23-.1,12.8,1.71,3,9.23,2.15,15.73,7.31,4.53,3.59,5.37,8.39,3.19,13.49-5.33,12.51,8.75,14.97-1.8,28.91-5.37,7.09-4.01,17.07,4.22,21.31h.03ZM529.47,338.2c-3.22-4.1-5.1-5.07-9.8-6.11l-.84,7.72,10.64-1.6h0Z" style="fill: #fff;"/>
        <path d="M238.8,334.6c-11.44-8.47-26.29.71-27.58-13.85-1.13-12.76,5.1-19.35-5.61-34.08-3.92-5.39-7.52-10.99-10.95-16.91l5.8-2.99-6.74-4.08c-.82-.49-1.81-2.6-2.14-3.45s1.26-3.4,2.14-3.11c11.71,3.9,31.67,27.01,39.83,37.44l20.66,26.4c.56.72.02,2.87-.68,3.53-3.64,3.43-6.76,6.56-10.29,10.33-.88.94-3.4,1.53-4.43.77h-.01Z" style="fill: #fff;"/>
        <path d="M525.93,534.51l-45.1-37.53c-.05-4.29,1.25-8.99,2.83-12.66,19.41,8.24,37.62,14.9,57.6,21.24l-15.32,28.94h-.01Z" style="fill: #fff;"/>
        <path d="M553.98,347.02c2,.18,4.64,5.79.9,10.8-1.18,1.58-5.8,3.62-7.37,2.23-3.71-3.29-1.58-10.6,2.73-12.36,1.11-.45,2.89-.74,3.75-.67h-.01Z" style="fill: #fff;"/>
        <path d="M602.83,391.21c-1.19-1.79-2.28-4.71-2.09-6.45l1.38-12.54c4.16,5.82,3.69,12.29.71,18.99h0Z" style="fill: #fff;"/>
        <path d="M533.94,329.44c-4.21-2.7-4.34-7.96-1.78-12.09l1.78,12.09Z" style="fill: #fff;"/>
        <path d="M694.98,442.53c-2.2,23.97-21.11,31.23-40.9,34.24-4.52.69-5.96-2.15-7.03-5.6-5.83-18.78-6.61-37.56-1.07-56.47,1.93-6.6,3.05-13.08,4.08-19.99.36-2.41,2.03-4,4.35-4.2l24.02-2.03c.95,2.05,2.73,9.5.26,10.92-7.69,4.42-26.17,12.04-26.82,22.98,9.69-8.51,19.86-14.34,31.91-18.78,18.5-6.81,35.65-14.69,52.59-24.84,7.9-4.73,16.03-8.8,22.64-15.19,10-9.66,20.25-17.43,32.04-24.91,18.59-11.8,36.66-23.46,53.28-37.96,13.69-11.94,25.8-24.24,40.25-35.61-.27,1.3-1.27,3.47-2.52,4.73l-17.67,17.75c-.33.33-.93,2.04-.97,2.51s.84,1.11,1.31,1.03,1.81-.67,2.29-1.1l18.18-16.44c.68,1.08.04,3.09-.92,4.19-7.6,8.79-14.54,17.06-21.57,26.27-8.06,10.57-14.75,4.39-26.8,18.04l-23.35,26.44c-8.3,9.4-17.35,17.68-27.49,25.14l-42.43,31.18c-14.13,10.38-28.41,19.19-43.35,28.36-4.84,2.97-19.8,13.26-18.51,18.7,4.89-3.51,8.38-6.21,14.18-9.37h.02Z" style="fill: #fff;"/>
        <path d="M989.83,319.91c-.16,7-5.27,10.26-11.34,10.13-17.78-.38-15.35,8.78-20.46,3.62l-11.1-11.2c-1.06-1.07.75-3.7,1.68-4.89,10.37-13.23,20.17-26.06,31.25-38.61,3.63-4.12,25.08-25.93,28.59-22.35,3.2,3.26-3.16,7.82-6.94,9.79l4.37,4.1c-3.32,5.34-6.52,10.36-10,15.36-9.75,14.04-5.73,19.36-6.06,34.05h0Z" style="fill: #fff;"/>
        <path d="M677.57,532.8c-.97.86-3.41.61-3.87-.27l-12.98-24.63c-.32-.61-.53-2.08-.27-2.51s1.54-1.31,2.14-1.48c18.92-5.09,37.4-11.57,55.25-19.69,2,4.29,3.13,8.94,2.25,13.31-14.78,11.54-28.29,22.59-42.53,35.26h.01Z" style="fill: #fff;"/>
        <path d="M686.94,339.97c.57-2.3.84-6.98-.82-7.4-3.3-.84-9.22,3.16-9.89,6.22l10.7,1.18h.01Z" style="fill: #fff;"/>
        <path d="M679.96,377.52l-1.48,8.62c-3.87-3.68-5.51-6.7-6.92-11.71l8.39,3.08h.01Z" style="fill: #fff;"/>
        <path d="M529.47,338.2l-10.64,1.6.84-7.72c4.7,1.04,6.59,2.01,9.8,6.11h0Z"/>
        <path d="M686.94,339.97l-10.7-1.18c.67-3.06,6.59-7.06,9.89-6.22,1.65.42,1.38,5.1.82,7.4h-.01Z"/>
      </g>
    </g>
    <g style="isolation: isolate;">
      <text transform="translate(473.27 813.41)" style="font-family: DINCondensed-Bold, &apos;DIN Condensed&apos;; font-size: 47.35px; font-weight: 700; isolation: isolate; letter-spacing: .2em;"><tspan x="0" y="0">DURHAM, NC</tspan></text>
    </g>
    <g style="isolation: isolate;">
      <text transform="translate(43.71 728) scale(1.06 1)" style="font-family: DINCondensed-Bold, &apos;DIN Condensed&apos;; font-size: 95.43px; font-weight: 700; isolation: isolate;"><tspan x="0" y="0" style="letter-spacing: .3em;">BOOMERANG PIL</tspan><tspan x="856.38" y="0" style="letter-spacing: .25em;">A</tspan><tspan x="918.6" y="0" style="letter-spacing: .3em;">TES</tspan></text>
    </g>
  </g>
</svg>