<?xml version="1.0" encoding="UTF-8"?>
<svg id="b" data-name="Layer 2" xmlns="http://www.w3.org/2000/svg" width="1448" height="809.25" viewBox="0 0 1448 809.25">
  <g id="c" data-name="Layer 1">
    <g>
      <g id="d" data-name="sc59NE">
        <g>
          <path d="M1178.99,99.32c9.7,7.49,18.79,20.45,29.19,27.43l-39.96,67.98c-16.45,27.99-38.51,50.75-66.15,67.79-13.97,8.61-25.47,19.3-33.7,33.72l-36.57,64.09c-18.09,31.7-45.88,78.7-70.99,104-27.73,27.94-73.34,42.32-106.73,14.1-20.57-17.38-28.86-44.78-37.93-60.84l60.82-56.86,10.05-8.45c.86-.73,2.89-1.52,3.94-1.72,2.02,2.88,4.58,5.93,7.35,9.28l92.06-89.75,33.61-32.41c7.99-7.7,16.73-13.43,26.32-18.98,10.36-6.01,19.18-13.78,27.91-21.9l24.96-23.2,75.84-74.28Z" style="fill: #3f3936;"/>
          <path d="M509.75,349.58l74.49,67.92c-.2,2.14-1.01,4.81-2.2,7.13-5.52,10.73-10.56,21.02-16.77,31.29-15.78,26.09-39.93,42.36-71.58,36.84-33.8-5.9-55.07-26.36-74.59-53.27-16.3-22.46-30.66-45.29-44.43-69.49l-41.26-72.5c-8.77-15.42-20.71-26.63-35.55-35.91-40.92-25.58-59.24-56.77-82.83-96.93-7.58-12.9-15.77-24.94-22.13-37.77,5.1-3.3,9.44-7.77,14.05-12.34l15.31-15.19c1.02.21,2.8,1.16,3.67,2.08l25.95,27.38,75.63,72.19c10.24,9.77,21.24,16.89,33.29,23.97,10.4,6.11,18.12,14.57,26.82,23.12l113.65,111.77c3.32-4.25,5.46-7.79,8.5-10.28Z" style="fill: #3f3936;"/>
          <path d="M864.86,252.43c-7.42,4.54-16.19,7.65-23.7,13.47,2.51,33.26-31.57,49.37-59.3,53.27-5.16.73-9.86-2.57-12.52-7.08-13.3-22.64-19.14-60.91,7.78-77.28,4.03-2.45,8.53-2.32,12.55-3.77,6.31-2.28,12.21-6.3,18.3-9.5-19.27-4.95-41.67,6.61-52.22,22.13-.53.78-2.16,1.86-2.44,1.92l6.96-25.83c2.04-7.58,3.99-15.03,3.95-22.35,16.95-.16,33.9-3.48,51.19-7.53-10.39-17.68-13.77-40.99-14.04-60.41,6.3-10.27,7.46-20.93,8.05-33.22,1.82,5.68,2.07,10.91,2.67,17.83,3.93-.91,10.73-2.64,12.95-6.31,3.27-5.4-.93-11.93-.85-18.54,4.8,2.5,5.8,8.33,7.78,13.95.99.06,3.8-.64,5.69-1.52.81,25.83,28.58,20.96,19.04,32.38-4.52,5.41-.74,3.96-.14,17.57.15,3.38.04,6.17,1.18,9.39.99,2.81,1.29,7.12-.29,9.32-1.22,1.69-4.52,4.23-7.05,4.71l-21.05,4.02c-6.38,1.22-8.36,25.88-6.46,32.52l24.43-11.57c20.72-9.82,39.97-21.48,59.63-33.29,7.12-4.28,13.23-9.36,18.98-15.15,11.41-11.5,23.6-20.89,37.09-29.81l39.19-25.93c16.35-10.82,31.11-22.23,45.67-35.33,17.47-15.71,34.71-30.34,53.35-44.62,1.07-.82,3.77-1.23,4.86-.83s1.97,3.15,1.99,4.34l.28,11.97c.17,7.27-6.87,13.61-11.25,19.29l-22.24,28.88c-13.97,18.15-22.76,9.39-34.36,22.58l-37.32,42.43c-17.95,20.4-37.57,37.03-60.42,51.72-12.59,8.1-23.21,17.99-35.32,26.85-14.18,10.37-27.96,20.39-42.56,29.32ZM831.76,124.89c.91-.01,3.69-2.82,2.98-2.58l-3.53-5.63c-5.67,4.6-13.9,3.35-13.51,8.43l14.06-.22Z" style="fill: #d3b9a2;"/>
          <path d="M566.73,95.64c2.27-3.35,5.83-6.39,9.24-9.26-1.69,6.99-3.62,13.01-2.15,19.6,1.23,5.5,7.06,8.39,12.47,8.51-3.64-6.98-5.19-14.27-.72-21.05-1.38,27.37,11.39,24.09,16.6,46.09l5.34-2.89c1.34-.73,4.83-.9,6.22-.3,1.55.67,3.63,3.57,3.91,5.51,1.39,9.59-6.35,16.34-15.31,16.98-2.16,6.06-4.61,11.74-7.45,17.34-5.52,10.89-3.46,22.71,6.59,29.86l11.65,8.28c7.04,5,9.64,12.94,8.02,21.18-1.44,7.31,1.28,14.4,6.48,19.42,6.15,5.93,7.19,14.31,2.52,21.69-11.03,17.4.4,21.52-3.45,33.52l-2.71,8.45c-28.01,2-69.46-19.19-68.94-53.15-7.03-4.46-13.86-8.97-21.16-11.94-16.04-11.03-32-21.88-47.79-34.09-10.72-8.29-20.4-16.88-31.62-24.42-17.82-11.97-33.96-24.53-48.29-40.66l-44.07-49.63c-16.13-18.16-22.81-6.71-35.49-23.69l-12-16.07-19.47-25.63c-1.52-2.01-2.92-6.11-2.62-8.35,1.43-10.67-.67-14,2.58-15.77.99-.54,3.55-.29,4.62.53,18.76,14.36,35.89,29.13,53.4,44.89,13.96,12.57,27.8,24.05,43.29,34.61l33.34,22.73c16.12,10.99,31.18,22.08,45.5,35.29,6.49,5.98,12.85,11.12,20.34,15.89,21.75,13.87,44.29,25.32,67.66,36.21l11.74,5.47c.79-9.44.52-17.69-1.91-26.11s-10-6.21-24.97-10.14c-5.86-1.54-8.29-6.9-6.23-12.38,2.31-6.12.68-9.57,2.82-18.92.83-3.64,1.54-6.34-1-9.27-7.96-9.16,11.55-9.36,16.42-21.25,2.38-5.83,3.3-12.21,6.59-17.06ZM582.84,124.43c-3.14-6.2-6.7-.71-13.94-7.7l-3.84,5.23c.21,4.93,14.09,2.91,17.78,2.47Z" style="fill: #d3b9a2;"/>
          <path d="M837.64,101.66c-1.89.88-4.7,1.58-5.69,1.52-1.98-5.62-2.98-11.45-7.78-13.95-.09,6.61,4.11,13.15.85,18.54-2.22,3.67-9.02,5.4-12.95,6.31-.59-6.92-.85-12.16-2.67-17.83-.58,12.29-1.74,22.94-8.05,33.22.28,19.42,3.65,42.73,14.04,60.41-17.29,4.06-34.24,7.37-51.19,7.53-15.79.15-31.82-2.28-48.28-4.96,11.67-28.94,9.05-50.67,14.17-79.67,7.15-32.11,33.97-42.06,63.88-44.21,20.94-1.51,44.55,7.44,48.48,30.01l-4.82,3.08Z" style="fill: #3f3936;"/>
          <path d="M864.86,252.43c4,4.78,8.78,9,13.73,13.51,15.95,14.55,15.21,32.01,4.19,49.68-1.55,2.49-3.87,7.29-2.76,10.02-30.7,14.77-62.02,27.8-94.73,37.28-14.34-25.4-30.75-51.68-35.16-82.33-1.79-12.43.14-23.69,3.19-35,.28-.06,1.91-1.15,2.44-1.92,10.55-15.52,32.94-27.09,52.22-22.13-6.09,3.2-11.98,7.22-18.3,9.5-4.01,1.45-8.51,1.32-12.55,3.77-26.91,16.38-21.08,54.65-7.78,77.28,2.65,4.51,7.36,7.8,12.52,7.08,27.74-3.9,61.81-20.01,59.3-53.27,7.5-5.83,16.27-8.93,23.7-13.47Z" style="fill: #bf5a13;"/>
          <path d="M624,318.56c.66,3.3,2.61,8.45,5.25,10.88-4.6,11.59-11,22.44-16.51,33.45-29.3-8.77-57.62-20.09-85.64-33.28-2.86-1.35-5.54-2.31-8.07-3.13l-.3-6.51c-11.84-16.93-16.06-37.22.23-52.48l14.96-14.01c7.3,2.97,14.13,7.48,21.16,11.94-.52,33.95,40.93,55.15,68.94,53.15Z" style="fill: #bf5a13;"/>
          <path d="M1208.19,126.75c-10.4-6.98-19.49-19.94-29.19-27.43l45.5-56.29c12.63-15.62,26.39-29.22,42.5-41.32,2.98-2.24,6.58-2.63,8.98,1.01,2.9,4.39,1.93,9.37.69,14.26-8.85,34.95-28.07,38.43-24.57,68.67.56,4.85.77,10.06.52,14.8-.63,12.2-10.52,19.76-22.8,18.74-7.73-.64-16.32,1.8-21.64,7.57Z" style="fill: #d3b9a2;"/>
          <path d="M222.25,99.35l-15.31,15.19c-4.61,4.57-8.94,9.04-14.05,12.34-5.39-5.92-13.79-8.22-21.85-7.66-8.76.61-17.19-2.82-20.5-11.04-7.23-17.99,7.26-29.23-8.52-54.69-4.44-7.17-9.68-14.34-12.41-22.32l-4.93-14.38c-1.66-4.85-1.9-10.17,1.21-14.38,2.21-2.99,6.19-3.02,8.92-.67,16.34,14.07,30.87,28.58,44.86,45.4l41.27,49.65c.72.86,1.37,2.44,1.33,2.58Z" style="fill: #d3b9a2;"/>
          <path d="M890.95,350.56c-1.05.2-3.08,1-3.94,1.72l-10.05,8.45-60.82,56.86-30.86-54.66c32.71-9.48,64.03-22.52,94.73-37.28,3.41,8.39,5.73,17.49,10.94,24.91Z" style="fill: #d3b9a2;"/>
          <path d="M612.73,362.89c-9.17,18.31-17.49,37.44-28.49,54.61l-74.49-67.92,9.26-23.11c2.53.82,5.22,1.79,8.07,3.13,28.02,13.19,56.35,24.51,85.64,33.28Z" style="fill: #d3b9a2;"/>
          <circle cx="705.48" cy="261.06" r=".5" style="fill: #605046;"/>
          <path d="M629.25,329.44c-2.64-2.43-4.59-7.58-5.25-10.88l2.71-8.45c3.85-12.01-7.58-16.12,3.45-33.52,4.67-7.37,3.63-15.76-2.52-21.69-5.2-5.02-7.91-12.11-6.48-19.42,1.62-8.23-.98-16.17-8.02-21.18l-11.65-8.28c-10.06-7.15-12.12-18.97-6.59-29.86,2.84-5.59,5.29-11.28,7.45-17.34,8.96-.64,16.7-7.39,15.31-16.98-.28-1.94-2.36-4.84-3.91-5.51-1.39-.6-4.88-.43-6.22.3l-5.34,2.89c-5.22-22-17.99-18.72-16.6-46.09-4.46,6.77-2.92,14.07.72,21.05-5.41-.12-11.25-3.01-12.47-8.51-1.47-6.59.46-12.62,2.15-19.6-3.41,2.87-6.97,5.91-9.24,9.26,1.47-12.91,10.89-23.31,24.64-25.75,18.13-3.22,37.47-.07,54.19,8.1,16.38,8.01,26.89,22.75,30.47,40.31,4.04,19.81.26,31.55,12.83,47.29,18.03,22.57-5.52,35.19,11.84,52.19,7.66,7.5,9.68,17.94,6.21,27.95-1.62,4.67-1.91,9.23-2.33,14.47-7.95-8.55-.31-16.73-3.93-25.79l-3.16,10.69c-2.38,8.06-.76,15.62,5.59,21.4,8.86,8.06,10.69,19.74,5.25,30.47-2.49,4.92-2.75,10.24-.32,15.53-5.91-1.38-7.84-7.36-7.47-12.85l.64-9.53c-15.16,24.11,2.51,27.32,5.14,41.69,1.36,7.44-2.26,14.72-9.46,17.23,2.42-9.56.65-19.1-8.45-23.91,15.12,26.85-11.1,28.83,3,45.44-8.71.24-13.8-7.16-12.27-14.94.6-3.06.86-5.85.78-9.35-3.73,5.56-7.05,10.93-8.36,17.08-1.74,8.17,2.72,14.74,11.13,15.94-4.38,4.65-10.55,4.32-15.44,1.68-7.19-3.88-11.14-11.84-9.57-20.08l2.38-12.47c-5.77,5.57-6.93,12.65-6.02,20.18.99,8.22-5.88,14.83-14.09,14.03-3.26-.32-6.31-1.41-9.19-2.96,3.45-1.34,6.76-2.19,9.29-3.92,7.04-4.78-2.53-17.55-3.36-25.5-3.98,4.56-3.52,10.39-.54,16.34-3.87-2.07-7.6-5.04-8.81-9.2-3.51-12.1,12.54-18.21,1.9-27.97Z" style="fill: #3f3936;"/>
          <path d="M831.76,124.89l-14.06.22c-.39-5.08,7.84-3.83,13.51-8.43l3.53,5.63c.71-.24-2.07,2.56-2.98,2.58Z" style="fill: #605046;"/>
          <path d="M582.84,124.43c-3.68.44-17.57,2.47-17.78-2.47l3.84-5.23c7.24,6.99,10.8,1.5,13.94,7.7Z" style="fill: #605046;"/>
        </g>
      </g>
      <text transform="translate(542.53 790.59)" style="fill: #bf5a13; font-family: DINCondensed-Bold, &apos;DIN Condensed&apos;; font-size: 59.8px; font-weight: 700; isolation: isolate; letter-spacing: .2em;"><tspan x="0" y="0">DURHAM, NC</tspan></text>
      <text transform="translate(0 682.72) scale(1.06 1)" style="fill: #3f3936; font-family: DINCondensed-Bold, &apos;DIN Condensed&apos;; font-size: 120.53px; font-weight: 700; isolation: isolate;"><tspan x="0" y="0" style="letter-spacing: .3em;">BOOMERANG PIL</tspan><tspan x="1081.6" y="0" style="letter-spacing: .25em;">A</tspan><tspan x="1160.18" y="0" style="letter-spacing: .3em;">TES</tspan></text>
    </g>
  </g>
</svg>