<svg width="5634" height="855" viewBox="0 0 5634 855" fill="none" xmlns="http://www.w3.org/2000/svg">
<path d="M3236.17 186.565C3278.05 183.942 3305.75 184.96 3344.56 205.758C3354.81 211.249 3367.31 223.802 3378.55 228.664C3386.65 229.081 3465.47 198.101 3476.02 192.488C3477.09 206.993 3476.46 231.348 3476.08 245.788C3462.47 246.098 3403.45 244.609 3395.32 247.031C3395.49 251.467 3404.7 261.526 3407.55 265.901C3416.28 279.282 3423.75 295.36 3427.98 310.726C3437.69 346 3438.38 372.832 3427.88 407.961C3420.41 432.976 3412.93 444.784 3398.26 465.241C3355.74 524.598 3277.71 535.206 3220.35 575.213C3195.43 592.587 3173.11 616.248 3182.42 649.636C3184.77 658.065 3189.28 666.957 3197.88 670.182C3267.12 696.142 3317.6 606.066 3380.85 586.789C3403.58 575.748 3424.22 575.05 3448.58 573.742C3448.78 595.736 3448.66 617.731 3448.22 639.722C3417.5 636.871 3386.51 639.964 3356.95 648.835C3294.21 668.012 3243.34 709.779 3171.54 688.717C3157.45 685.004 3135.99 669.744 3130.12 655.821C3101.66 588.53 3222 555.281 3258.05 536.716C3174.75 530.711 3102.86 471.37 3089.2 387.606C3081.43 342.55 3092.06 296.26 3118.7 259.104C3146.57 220.179 3188.89 194.05 3236.17 186.565ZM3298.54 501.379C3328.08 497.61 3354.46 490.795 3373.64 466.02C3392.78 441.278 3396.73 406.746 3392.71 376.45C3386.24 327.488 3358.49 281.631 3319.42 251.719C3292.51 231.119 3259.08 218.144 3224.87 219.488C3087.01 228.175 3115.73 398.018 3193.38 460.634C3219.63 481.795 3262.18 504.007 3296.66 501.552C3297.3 501.512 3297.92 501.454 3298.54 501.379Z" fill="#202020"/>
<path d="M661.873 184.167C662.243 184.486 697.597 187.614 706.611 190.007C739.242 198.671 766.037 213.69 790.538 236.798C828.147 272.446 850.201 321.475 851.924 373.267C854.91 479.047 764.313 566.677 660.069 569.759C624.572 568.92 597.099 561.665 566.467 543.232C519.735 514.722 486.292 468.764 473.539 415.529C447.245 308.969 530.094 197.485 637.985 186.764C645.856 185.982 654.219 186.046 661.873 184.167ZM698.393 535.125C720.479 532.715 736.528 529.857 756.564 518.696C798.489 495.339 814.619 443.562 809.398 397.671C803.139 341.578 774.658 290.336 730.325 255.406C701.092 232.151 661.534 215.92 623.853 216.746C601.552 219.438 584.675 221.758 564.513 233.386C521.681 258.089 507.531 311.395 513.45 357.892C520.832 413.074 549.604 463.146 593.563 497.31C621.045 518.482 663.339 536.731 698.393 535.125Z" fill="#202020"/>
<path d="M1058.04 187.056C1162.97 173.499 1258.95 247.734 1272.22 352.698C1285.48 457.662 1210.98 553.443 1105.98 566.415C1001.39 579.336 906.071 505.19 892.858 400.639C879.647 296.088 953.525 200.561 1058.04 187.056ZM1121.09 535.002C1196.31 526.466 1233.01 484.11 1232.14 408.839C1231.07 314.945 1143.09 213.946 1045.81 216.727C1031.08 218.582 1019.07 219.978 1004.95 224.839C948.08 244.415 928.109 304.856 935.593 360.389C947.692 450.15 1026.71 535.05 1120.71 535.053C1120.84 535.037 1120.97 535.019 1121.09 535.002Z" fill="#202020"/>
<path d="M3691.45 186.112C3695.71 185.879 3694.4 185.377 3697.79 187.424C3702.65 204.595 3694.07 284.504 3701.31 290.179C3710.45 284.742 3728.17 219.709 3776.33 196.352C3795.74 186.937 3817.87 186.34 3838.12 193.483C3867.86 203.964 3887.99 229.326 3901.13 256.921C3930.06 317.651 3932.03 394.869 3909.56 457.857C3895.89 496.225 3870.56 535.421 3833.74 554.951C3821.2 561.603 3809.52 563.554 3799.06 568.513C3772.19 572.28 3749.17 571.14 3724.76 557.35C3718.56 553.847 3704.46 539.993 3699.71 539.91C3697.08 548.95 3698.96 642.452 3701.17 657.974C3702.26 665.538 3707.33 683.937 3709.71 692.01C3704.81 695.929 3652.57 694.586 3643.13 694.106C3642.16 664.425 3642.91 630.155 3642.88 600.169L3642.91 418.829L3642.89 330.028C3642.87 314.609 3643.18 296.884 3642.29 281.668C3641.19 263.098 3635.73 243.905 3632.62 225.379C3636.02 217.216 3679.39 196.374 3691.03 186.478L3691.45 186.112ZM3778.2 555.787C3805.37 550.076 3823.14 535.399 3838.12 512.335C3874.33 456.634 3882.36 374.226 3868.53 310.422C3862.28 281.515 3850.58 243.589 3824.49 226.678C3817.06 221.857 3805.66 217.753 3796.72 219.241C3773.26 222.402 3756.74 238.422 3742.9 256.528C3732.4 270.283 3723.92 285.493 3716.22 300.961C3710.63 312.195 3703.94 324.53 3700.79 336.75C3695.6 356.922 3698.68 390.65 3698.67 412.311C3698.65 431.803 3696.96 453.221 3699.56 472.493C3702.7 495.669 3723.01 529.938 3741.5 543.95C3750.01 550.396 3765.4 557.563 3776.34 556.147C3776.96 556.065 3777.58 555.936 3778.2 555.787Z" fill="#202020"/>
<path d="M196.113 63.8057L199.322 63.4067C203.169 67.4292 201.429 128.858 201.411 137.676L201.08 287.554C201.09 292.134 200.464 292.309 203.023 294.868C205.936 293.03 207.972 288.114 209.369 284.912C229.256 239.273 263.644 184.162 321.099 188.996C324.979 189.322 335.796 190.475 339.188 191.823C419.623 223.773 435.065 333.735 425.4 408.858C420.956 442.363 409.23 477.421 389.643 504.702C385.979 509.855 383.278 516.301 378.604 519.886C377.066 522.447 375.163 524.386 373.185 526.6C343.631 559.478 299.53 577.906 255.368 567.777C225.278 560.876 209.846 544.847 191.468 522.089C181.347 521.055 161.11 564.13 148.752 568.948C148.199 568.635 147.543 568.265 146.785 567.837C145.496 428.9 147.882 289.129 145.664 150.226C145.34 129.957 139.032 117.325 134.794 103.062C137.672 97.1754 186.941 69.3158 196.113 63.8057ZM279.883 556.5C300.793 551.838 317.185 544.792 331.045 527.226C378.396 467.215 385.703 377.201 371.274 304.522C364.827 272.046 340.7 214.912 300.173 219.315C274.57 223.15 259.983 239.113 244.815 259.211C230.26 278.497 204.948 326.012 201.433 349.406C200.06 358.551 202.189 397.46 201.507 410.48C200.976 420.624 200.709 459.739 201.869 467.478C205.263 490.1 226.877 531.096 246.075 544.411C254.964 550.576 268.962 556.78 279.883 556.5Z" fill="#202020"/>
<path d="M1722.46 184.037C1724.06 183.683 1730.56 185.192 1732.89 185.269C1748.88 185.817 1762.94 189.941 1775.94 199.299C1810.29 224.025 1806.79 262.484 1807.03 299.997C1807.52 364.84 1805.98 429.811 1807.56 494.619C1807.87 507.011 1810.43 523.472 1812.5 535.908C1813.77 543.553 1818.12 550.985 1819.44 559.723C1815.53 562.649 1762.09 561.771 1752.84 561.775C1750.87 493.063 1753.98 420.66 1752.67 351.596C1752.09 319.003 1754.46 286.009 1749.99 253.677C1747.67 236.944 1729.46 214.545 1712 214.997C1657.11 212.615 1598.49 294.019 1595.11 345.075C1590.68 412.496 1595.4 491.411 1593.16 561.099C1579.73 562.123 1552.86 561.641 1539.39 561.184C1538.14 505.066 1540.03 446.13 1539.2 390.385C1538.73 359.69 1542.18 270.059 1533.65 247.459C1529.5 229.575 1514.1 214.808 1494.9 215.353C1466.66 216.156 1449.95 229.168 1430.88 247.967C1373.17 304.856 1379 362.231 1379.1 437.344V561.068C1366.23 562.233 1337.04 561.498 1324.08 561.181L1324.02 358.938C1324.02 311.727 1325.48 263.753 1319.26 216.906C1318.22 209.014 1310.69 198.745 1313.75 194.169C1315.97 193.546 1318.24 193.131 1320.53 192.928C1331.8 192.043 1362.41 192.857 1375.16 193.716C1376.21 194.637 1377.1 195.416 1377.83 196.054C1380.52 205.366 1378.93 276.582 1379.68 292.981C1381.74 289.147 1384.16 284.15 1385.91 280.187C1407.89 230.303 1445.95 187.712 1504.25 185.295C1539.82 183.82 1570.47 193.953 1585.64 229.515C1593.38 247.671 1592.3 265.669 1594.6 284.992L1596.26 285.992L1598.61 284.796C1599.42 278.248 1600.1 280.235 1602.23 275.747C1622.65 232.632 1654.55 194.283 1704.43 186.722C1710.36 185.823 1716.25 185.776 1722.46 184.037Z" fill="#202020"/>
<path d="M4370.85 183.771C4380.61 182.187 4416.53 193.523 4423.63 199.434C4490.61 255.114 4459.91 370.711 4467 447.73C4469.07 470.25 4469.29 519.914 4462.53 540.23C4461.82 542.094 4415.99 569.532 4414.13 569.474C4405.2 562.843 4416.72 467.751 4410.33 449.386C4407.29 449.86 4391.06 484.243 4387.22 489.973C4364.09 524.423 4326.08 566.796 4281.81 570.081C4239.44 573.224 4214.68 550.266 4212.09 508.278C4215.04 432.047 4320.9 377.94 4377.97 342.633C4381.72 340.5 4409.99 323.717 4410.2 320.698C4412.12 292.556 4417.08 223.487 4391.65 205.661C4351.66 177.627 4257.13 315.1 4245.44 316.978C4244.23 312.135 4243.92 247.695 4246.13 245.203C4263.2 225.843 4314.17 199.373 4339.47 189.755C4347.53 186.693 4361.51 186.983 4370.46 183.906L4370.85 183.771ZM4267.87 507.161C4271.56 513.882 4274.79 519.142 4281.11 523.717C4295.92 528.808 4306.51 527.785 4320.65 520.867C4360.77 501.248 4394.03 446.68 4407.95 405.689C4411.21 396.096 4414.13 354.148 4410.61 346.104C4409.05 345.594 4407.84 345.117 4406.2 345.371C4360.22 378.993 4277.67 420.682 4268.09 482.44C4266.83 490.486 4267.48 499.056 4267.87 507.161Z" fill="#202020"/>
<path d="M2608.24 183.996C2625.01 182.801 2655.61 195.554 2667.67 207.284C2693.31 232.215 2701.43 271.91 2701.51 306.385C2701.71 380.895 2701.44 455.132 2701.53 529.612C2701.53 532.961 2700.59 537.913 2698.09 540.008C2692.3 544.841 2654.25 568.568 2649.53 568.542C2641.1 562.517 2651.67 458.078 2645.01 449.974C2639.74 452.835 2638.72 461.944 2634.77 468.738C2621.32 492.402 2610.04 509.197 2590.89 529.18C2557.78 563.722 2505.52 589.611 2463.54 552.549C2449.8 540.424 2447.14 520.59 2447.2 502.563C2446.77 448.735 2533.52 390.509 2574.12 365.35C2580.48 361.411 2587.59 358.857 2593.96 355.013C2598.2 352.452 2601.46 348.464 2605.73 345.812C2617.59 338.428 2635.63 333.002 2644.03 321.526C2651.95 310.725 2645.35 248.89 2642.82 233.434C2641.06 222.708 2636.71 213.069 2627.64 206.658C2585.09 176.611 2496.98 312.812 2480.95 315.699L2479.29 314.142C2478.57 309.632 2478.72 247.38 2481.34 244.833C2504.83 221.992 2543.74 202.156 2574.44 189.905C2584.3 185.976 2598.26 187.735 2608.24 183.996ZM2514.53 522.454C2525.64 528.032 2535.32 528.679 2547.22 524.784C2582.99 513.074 2613.7 468.239 2629.78 436.084C2651.23 393.196 2645.69 392.68 2646.64 348.19L2645.37 345.838L2641.57 345.703C2594.94 377.721 2514.29 420.891 2502.94 481.461C2500.7 493.396 2501.07 505.932 2508.16 516.136C2509.96 518.725 2511.92 520.656 2514.53 522.454Z" fill="#202020"/>
<path d="M5109.73 496.943C5102.85 503.515 5096.38 511.834 5089.26 518.142C5057.03 546.685 5015.51 566.872 4972.11 569.16C4928.77 571.714 4885.91 558.914 4851.08 533.007C4844.87 528.336 4837.82 519.004 4829.7 514.59C4828.47 513.92 4818.06 500.575 4816.45 498.734C4788.67 466.888 4771.86 423.647 4770.7 381.436C4769.13 331.303 4787.75 282.64 4822.39 246.361C4857.22 209.046 4905.5 187.164 4956.54 185.558C4997.76 184.48 5042.3 191.652 5075.23 219.77C5083.97 227.36 5094.38 243.56 5093.69 255.675C5089.52 328.77 4959.43 318.137 4913.97 318.231L4817.14 318.201C4812.19 434.331 4890.47 543.221 5016.42 532.77C5047.64 530.181 5086.49 511.758 5106.37 487.095L5110.5 488.5C5111.34 491.882 5109.5 492.458 5109.73 496.943ZM4820.28 302.373L4943.24 302.247C4968.06 302.069 5013.28 302.43 5031.89 283.236C5035.79 279.224 5038.28 274.136 5038.24 268.454C5038.18 260.04 5032.94 252.562 5027.06 246.994C5003.83 225.013 4961.98 217.617 4930.79 218.639C4925.98 218.798 4921.16 219.284 4916.37 219.741C4888.25 221.546 4861.64 230.031 4842.41 251.769C4830.07 265.713 4822.59 283.97 4820.28 302.373Z" fill="#202020"/>
<path d="M2190.37 500.321C2188.97 503.595 2179.91 511.666 2176.85 514.651C2051.44 636.675 1853.4 540.288 1855.21 370.316C1856.34 264.71 1948.86 182.604 2053.29 185.358C2094.76 186.451 2175.35 201.804 2177.03 257.295C2175.63 326.039 2049.9 318.117 2002.77 318.352C1968.7 318.753 1934.62 318.692 1900.56 318.169C1899.05 369.132 1911.66 419.287 1942.13 460.786C1969.94 499.243 2011.97 524.97 2058.88 532.227C2113.56 540.534 2143.59 524.539 2184.7 494.276C2189.57 496.984 2188.23 495.441 2190.37 500.321ZM1904.25 302.453L2024.89 302.3C2057.17 302.339 2109.02 303.884 2124.18 269.774C2109.21 223.348 2040.53 215.205 1998.93 219.749C1949.05 223.41 1911.21 250.786 1904.25 302.453Z" fill="#202020"/>
<path d="M2954.92 184.111L2955.91 183.958C2958.94 185.491 2975.82 185.235 2984.89 188.22C3005.35 193.851 3020.32 210.068 3030.77 227.799C3030.23 226.897 3037.56 254.338 3037.56 254.266C3039.47 273.395 3038.82 293.683 3038.82 313.018L3038.73 435.854C3038.71 472.535 3035.66 529.003 3052.55 561.243C3034.42 562.587 3002.67 561.795 2983.86 561.492C2982.86 542.644 2983.68 514.722 2983.7 495.172L2983.71 366.283C2983.7 342.152 2986.35 255.281 2975.96 238.134C2939.45 177.895 2860.26 249.983 2842.96 294.973C2820.59 328.968 2824.11 385.207 2824.13 424.272C2824.42 469.885 2824.29 515.5 2823.77 561.11C2810.97 562.138 2782.34 561.808 2769.54 561.1L2769.48 378.104C2769.46 328.38 2771.12 276.997 2765.56 227.587C2764.45 217.689 2758.68 203.098 2759.54 193.685C2768.93 190.57 2791.06 193.537 2801.69 192.694C2810.53 191.992 2825.09 192.862 2825.16 205.03C2825.2 216.797 2820.6 279.929 2827.1 286.299C2832.54 283.566 2831.94 278.136 2834.52 272.357C2851.24 235.121 2882.37 203.03 2921 188.773C2928.27 186.088 2945.53 186.339 2954.92 184.111Z" fill="#202020"/>
<path d="M5257.5 184.034C5274.55 178.917 5356.63 206.215 5351.32 234.673C5349.24 245.814 5356.11 288.432 5348.58 293.108C5346.18 290.543 5344.18 278.073 5342.06 272.793C5327.73 237.084 5301.61 203.531 5259.98 202.735C5246.21 202.471 5232 206.47 5222.09 216.574C5182.44 267.629 5244.48 325.408 5282.06 357.742C5332.36 401.007 5410.87 469.965 5344.44 537.815C5318.36 564.45 5283.5 570.289 5247.52 570.035C5221.9 569.161 5200.64 563.822 5178.48 550.787C5171.38 546.617 5152.62 534.98 5152.03 528.322C5151.26 519.749 5149.7 465.123 5152.44 460.538L5155.41 461.863C5158.43 468.518 5158.93 474.872 5161.24 481.166C5177.58 525.46 5222.72 563.314 5272.15 550.273C5288.27 546.018 5299.19 536.998 5307.42 522.758C5335.1 474.947 5277.38 430.12 5247.44 400.662C5203.56 358.256 5125.55 297.607 5166.73 228.478C5179.74 206.626 5202.97 192.19 5227.58 187.731C5237.25 185.981 5247.12 186.69 5257.03 184.157L5257.5 184.034Z" fill="#202020"/>
<path d="M4546.98 233.437C4540.51 233.371 4527.29 234.036 4522.43 230.752L4522.07 227.798C4524.08 224.878 4533.35 219.296 4537.57 213.672C4549.21 198.197 4559.19 182.608 4573.34 169.392C4580.34 162.858 4589.23 141.268 4598.58 138.125C4604.93 143.873 4598.72 177.999 4601.69 187.359C4605.17 198.295 4622.31 192.298 4629.97 193.144C4639.19 194.165 4694.97 191.273 4700.13 194.099C4701.38 206.865 4681.89 221.967 4679.92 231.299C4671.3 235.009 4615.53 233.079 4601.11 233.319L4600.98 402.762C4600.95 435.105 4599.06 470.41 4603.82 501.975C4606.48 519.569 4629.49 534.235 4646.82 533.764C4675.11 532.997 4697 520.75 4716.83 501.691L4720.3 503.452C4721.11 506.546 4721.36 507.768 4721.66 510.953C4718.99 513.26 4707.73 526.448 4704.95 529.739C4673.39 567.11 4594.27 591.349 4563.33 541.995C4541.24 506.74 4546.88 440.094 4546.95 399.173L4546.98 233.437Z" fill="#202020"/>
<path d="M4151.8 63.7169C4153.43 63.2092 4154.64 63.5178 4156.36 63.7241C4166.54 77.9345 4140.6 485.56 4171.02 560.855C4154.25 562.293 4123.63 561.522 4105.83 561.589C4103.8 559.666 4103.23 558.27 4103.2 555.462C4102.25 426.287 4104.44 297.011 4102.34 167.853C4102.09 152.154 4101.17 135.884 4097.12 120.699C4095.82 115.783 4090.5 107.341 4090.7 102.806C4097.12 94.8394 4139.89 71.8354 4151.8 63.7169Z" fill="#202020"/>
<path d="M2441.83 184.067C2444.26 183.738 2443.59 183.88 2446.15 185.435C2450.75 192.693 2439.82 228.052 2437.75 238.348C2424.11 238.42 2410.51 239.959 2397.19 242.939C2325.2 259.725 2300.42 311.545 2303.27 379.996C2305.44 432.02 2299.06 486.383 2310.1 538.107C2311.6 545.179 2313.29 552.212 2314.93 559.233L2313.76 560.522C2300.05 562.437 2265.42 561.421 2249.77 561.231C2250.25 533.923 2249.66 505.038 2249.53 477.611C2250.06 395.683 2251.75 311.974 2246.22 230.226C2245.75 223.329 2237.18 198.346 2239.84 193.65C2253.58 192.127 2288.69 192.588 2303.17 193.282C2304.7 217.42 2301.15 262.85 2304.27 284.135L2306.13 285.385C2310.4 281.661 2315.87 268.312 2318.73 262.739C2338.29 224.522 2375.12 192.281 2419 187.46C2425.5 186.747 2436.15 186.072 2441.83 184.067Z" fill="#202020"/>
<path d="M3955.34 193.004C3965.13 192.525 4011.47 191.991 4019.07 194.406C4025.39 208.841 4019.37 446.593 4022.28 480.985C4023.27 492.877 4023.3 514.758 4025.49 529.327C4026.77 537.739 4034.5 557.244 4034.64 560.844C4025.51 562.233 3977.3 561.753 3967.58 560.898C3967.8 547.477 3967.78 533.647 3967.58 520.141C3966.19 424.676 3970.35 328.756 3964.63 233.454C3963.81 219.556 3956.78 206.06 3955.34 193.004Z" fill="#202020"/>
<path d="M3988.63 78.2946C4006.71 75.0138 4024.05 86.8904 4027.55 104.931C4031.03 122.973 4019.36 140.462 4001.35 144.156C3989.52 146.583 3977.31 142.467 3969.35 133.375C3961.41 124.284 3958.96 111.623 3962.95 100.225C3966.93 88.8263 3976.75 80.4504 3988.63 78.2946Z" fill="#202020"/>
<path d="M4716.83 501.691C4724.02 491.76 4744.15 465.979 4746.05 454.157L4748.54 452.217L4750.97 452.966C4746.22 470.875 4733.92 497.299 4721.66 510.953C4721.36 507.768 4721.11 506.546 4720.3 503.452L4716.83 501.691Z" fill="#363635" fill-opacity="0.913725"/>
<path d="M2184.7 494.276C2188.96 488.883 2215.79 453.069 2218.86 452.292C2219.64 462.855 2198.77 492.585 2190.37 500.322C2188.23 495.441 2189.57 496.984 2184.7 494.276Z" fill="#363635" fill-opacity="0.847059"/>
<path d="M5106.37 487.095C5114.73 478.603 5128.13 454.016 5134.38 452.262C5136.43 460.767 5116.27 490.919 5109.73 496.943C5109.5 492.459 5111.34 491.882 5110.5 488.5L5106.37 487.095Z" fill="#363635" fill-opacity="0.847059"/>
</svg>
