<?xml version="1.0" encoding="UTF-8"?>
<svg id="a" data-name="Layer 1" xmlns="http://www.w3.org/2000/svg" width="2150.53" height="498.66" viewBox="0 0 2150.53 498.66">
  <path d="M1799.2,142.03c17.65-3.46,29.87-.78,46.56,10.56,3.87,2.63,8.49,8.22,12.84,11.37,1.23.89,2.68,1.15,4.05.69,6.22-2.08,22.7-10.07,32.62-15.25,3.63-1.9,7.61,1.49,7.63,6.47.01,3.95-.04,8.1-.1,11.86-.06,3.82-2.52,6.86-5.54,6.84-5.52-.04-13.49-.17-19.81-.06-4.43.07-6.92,6.33-4.47,11.02.01.02.03.05.04.07,3.78,7.34,7.01,16.17,8.84,24.6,4.2,19.36,4.5,34.08-.04,53.36-3.23,13.73-6.47,20.21-12.82,31.43-18.4,32.57-52.16,38.4-76.98,60.35-10.78,9.53-20.44,22.52-16.41,40.84,15.03,24.54,52.92-33.91,109.32-41.24,3.15-.41,5.87,2.95,5.88,6.98.02,7.16-.01,14.31-.09,21.47-.04,3.93-2.64,7.03-5.73,6.88-11.43-.55-22.87,1.29-33.86,5.47-27.15,10.52-49.16,33.45-80.23,21.89-6.1-2.04-15.38-10.41-17.92-18.05-9.27-27.79,17.34-49.7,38.01-60.86,4.76-2.57,4.99-6.61.02-8.44-28.29-10.45-50.8-39.49-55.73-77.89-3.36-24.73,1.24-50.13,12.76-70.52,11.99-21.25,32.44-36.16,51.17-39.84ZM1853.52,289.59c8.28-13.58,14.82-26.7,13.08-43.33-2.8-26.87-14.81-52.04-31.71-68.45-11.64-11.31-26.11-18.43-40.91-17.69-59.65,4.77-47.22,97.98-13.63,132.34,11.36,11.61,54.95,23.98,73.17-2.87Z" style="fill: #716055;"/>
  <path d="M491.26,142.32c40.29-7.44,77.14,33.3,82.24,90.9,5.09,57.6-23.51,110.17-63.83,117.29-40.16,7.09-76.76-33.6-81.83-90.98-5.07-57.38,23.29-109.8,63.43-117.21ZM515.47,333.27c28.88-4.68,42.97-27.93,42.64-69.24-.41-51.53-34.19-106.96-71.55-105.43-5.66,1.02-10.27,1.78-15.69,4.45-21.84,10.74-29.51,43.91-26.63,74.39,4.65,49.26,34.99,95.85,71.08,95.85.05,0,.1-.02.15-.03Z" style="fill: #716055;"/>
  <path d="M655.56,142.32c40.29-7.44,77.14,33.3,82.24,90.9,5.09,57.6-23.51,110.17-63.83,117.29-40.16,7.09-76.76-33.6-81.83-90.98-5.07-57.38,23.29-109.8,63.43-117.21ZM679.77,333.27c28.88-4.68,42.97-27.93,42.64-69.24-.41-51.53-34.19-106.96-71.55-105.43-5.66,1.02-10.27,1.78-15.69,4.45-21.84,10.74-29.51,43.91-26.63,74.39,4.65,49.26,34.99,95.85,71.08,95.85.05,0,.1-.02.15-.03Z" style="fill: #716055;"/>
  <path d="M274.36,78.6c3.84-2.13,8.55.54,8.72,4.92.43,10.98-.03,28.34-.04,31.71l-.18,82.25c0,2.51-.34,2.61,1.07,4.01,1.6-1.01,2.72-3.71,3.48-5.46,10.91-25.05,29.79-55.29,61.32-52.64,2.13.18,8.07.81,9.93,1.55,44.14,17.53,52.62,77.88,47.31,119.11-2.44,18.39-8.87,37.63-19.62,52.6-2.01,2.83-3.49,6.37-6.06,8.33-.84,1.41-1.89,2.47-2.97,3.68-16.22,18.04-40.42,28.16-64.66,22.6-14.1-3.23-22.33-10.12-30.72-19.84-2.98-3.45-8.38-3.3-11.23.25-.09.11-.17.22-.26.33-5.62,7.08-17.03,3.11-17.04-5.93-.06-47.19-.04-147.11-.95-203.97-.14-8.86-2.37-15.06-4.44-21.18-1.05-3.1.1-6.5,2.78-8.38,5.16-3.61,16.14-9.84,23.58-13.96ZM329.68,343.29c14.11-2.35,17.11-4.91,24.51-14.29,25.99-32.93,30-82.33,22.08-122.22-3.54-17.82-16.78-49.18-39.02-46.76-14.05,2.1-22.06,10.86-30.38,21.89-7.99,10.58-24.23,33.4-23.81,49.5-.75,5.02-.4,60.55.24,64.8,1.86,12.41,13.72,34.91,24.26,42.22,4.63,3.21,16.36,5.81,22.12,4.85Z" style="fill: #716055;"/>
  <path d="M1014.86,149.04c18.85,13.57,16.93,34.68,17.06,55.26.27,35.59-.58,71.24.29,106.81.17,6.8,1.58,15.83,2.71,22.66.47,2.8,1.68,5.55,2.66,8.5.84,2.54-.97,5.17-3.63,5.35-7.24.51-20.69.42-27.81.37-2.21-.02-4.01-1.78-4.06-3.99-.86-36.52.7-74.81.01-111.38-.32-17.89.98-35.99-1.47-53.74-1.27-9.18-11.27-21.48-20.85-21.23-30.12-1.31-62.29,43.37-64.15,71.39-2.35,35.79,0,77.48-.96,114.79-.06,2.16-1.78,3.89-3.94,3.97-6.43.23-15.32.12-21.77-.04-2.19-.06-3.94-1.82-3.98-4.01-.52-29.62.41-60.53-.03-89.84-.26-16.85,1.64-66.03-3.05-78.44-2.28-9.81-10.73-17.92-21.27-17.62-15.5.44-24.67,7.58-35.13,17.9-31.67,31.22-28.47,62.71-28.42,103.93v64.03c0,2.21-1.73,4.02-3.93,4.1-6.45.23-15.78.07-22.27-.07-2.23-.05-3.99-1.87-3.99-4.1l-.03-106.98c0-25.91.8-52.24-2.61-77.95-.33-2.47-1.8-5.36-2.71-7.85s.77-5.07,3.37-5.31h.04c6.18-.49,22.98-.04,29.98.43.58.51,1.06.93,1.47,1.28,1.03,3.56.58,22.42.36,36.6-.05,3.1,4.03,4.17,5.56,1.47,11.85-20.84,37.02-42.88,63.46-43.98,19.52-.81,33.48,2.96,41.8,22.48,3.72,8.72,1.12,26.58,7.16,25.08,5.5-1.37,30.65-43.48,58.02-47.63,26.67-2.57,34.99,2.62,42.12,7.76Z" style="fill: #716055;"/>
  <path d="M1504.23,153.42c14.07,13.68,18.53,35.47,18.57,54.39.11,40.89-.04,81.63.01,122.51,0,1.84-.52,4.56-1.89,5.71-2.49,2.07-15.81,10.5-22.73,14.06-2.25,1.16-5-.22-5.31-2.74-1.25-9.89.26-33.84.19-48.62-.02-3.77-5.02-5.08-6.9-1.81h0c-7.38,12.99-13.57,22.2-24.08,33.17-18.17,18.96-46.85,33.16-69.89,12.82-7.54-6.65-9-17.54-8.97-27.43-.24-29.54,47.37-61.49,69.65-75.3,3.49-2.16,36.69-19.49,41.3-25.78,4.35-5.93,5.62-25.1,4.24-33.58-2.65-15.44-12.53-21.87-17.5-25.39-18.6-13.14-51.74,29.3-69.43,48.85-3.7,4.09-10.5,1.75-10.92-3.75-.8-10.47-1.27-24.13,1.41-26.48,12.89-12.53,34.24-23.42,51.09-30.14,5.41-2.16,30.25-12.04,51.16,9.54ZM1419.86,326.16c.21.15.45.29.69.41,5.95,2.9,11.18,3.2,17.58,1.1,19.63-6.43,36.48-31.03,45.31-48.68,2.81-5.61,4.64-11.37,5.81-16.88,2.93-13.83-12.32-24.3-24.05-16.4-22.73,15.3-46.89,34.27-51.37,58.18-1.23,6.55-1.03,13.43,2.86,19.03.91,1.31,1.9,2.31,3.17,3.24Z" style="fill: #716055;"/>
  <path d="M1241.93,313.4c.23.56.19,1.22-.17,1.71-1.53,2.08-5.44,5.58-6.89,6.99-68.82,66.97-177.51,14.07-176.51-79.21.62-57.96,51.39-103.01,108.7-101.5,22.76.6,66.99,9.03,67.91,39.48-.38,45.75-119.42,35.41-129.14,35.39-13.75-.03-20.34,10.1-18.82,23.77,2.09,18.87,7.35,36.58,19.05,52.52,15.26,21.1,38.33,35.22,64.07,39.21,29.27,4.45,43.81-5.72,65.53-21.54,1.52-1.1,4.21-3.08,6.25,3.14,0,.02.02.04.02.06ZM1095.53,192.3c-3.33,6.93-4.24,13.34,3.45,13.33l52.5-.07c6.84,0,15.27.14,23.54-.78,22.32-2.48,26.11-33.22,5.05-41.05-12.32-4.58-22-4.87-33.83-3.58-25.37,4.7-41.63,13.27-50.7,32.14Z" style="fill: #716055;"/>
  <path d="M1678.32,142.96c11.03,3.04,27.52,18.2,28.93,36.52.81,10.43.66,21.45.66,31.96l-.05,67.41c-.01,18.72-1.46,46.84,5.8,64.92.78,1.94-.56,4.05-2.65,4.13-9.12.35-21.56.1-30.46-.06-1.6-.03-2.87-1.3-2.92-2.9-.35-10.16.03-23.76.04-33.54v-70.73c0-13.24,1.45-60.92-4.25-70.33-20.04-33.06-63.5,6.5-72.99,31.19-12.28,18.66-10.34,49.52-10.33,70.96.15,24.1.09,48.2-.17,72.29-.02,1.59-1.26,2.9-2.85,2.97-6.73.3-17.31.21-24.07-.04-1.61-.06-2.88-1.39-2.88-3l-.03-97.55c-.01-27.29.9-55.49-2.15-82.6-.51-4.58-2.85-11-3.28-16-.14-1.59,1.07-2.96,2.65-3.16,5.9-.72,32.99-1.08,33.03,5.59.02,4.69-3.86,26.11-3.23,37.81.17,3.18,4.52,3.95,5.81,1.04,0,0,29.07-38.93,50.33-46.58,11.32-4.07,20.61-4.51,35.06-.3Z" style="fill: #716055;"/>
  <path d="M1380.29,140.68c7.82-1.2,1.81,12.41-1.77,22.11-1.48,4.01-6.19,7.78-10.45,8.21s-8.23,1.08-12.28,1.99c-39.52,9.21-53.75,43.05-47.79,162.09l.48,2.26c1.46,4.72-1.94,9.41-6.76,9.6-5.98.24-13.83.52-19.92.66-3.78.08-6.86-2.97-6.83-6.75.09-12.92-.15-26.28-.21-39.07.29-44.96,1.22-90.9-1.82-135.76-.13-1.95-1.44-6.52-2.48-10.85-1.17-4.86,2.44-9.56,7.44-9.69,5.03-.13,10.97-.11,16.21-.03,5.74.09,10.32,4.78,10.3,10.52-.05,10.96-.06,31.32-.07,38.34,0,.88,1.12,1.28,1.66.58,2.39-3.15,5.48-8.59,6.73-11.03,10.73-20.97,35.21-38.4,67.56-43.17Z" style="fill: #716055;"/>
</svg>