<?xml version="1.0" encoding="UTF-8"?>
<svg id="a" data-name="Layer 1" xmlns="http://www.w3.org/2000/svg" width="1954" height="1318.75" viewBox="0 0 1954 1318.75">
  <g>
    <path d="M1500.18,761.98c12.8-2.51,21.66-.57,33.76,7.66,2.81,1.91,6.16,5.96,9.31,8.25.89.65,1.95.83,2.94.5,4.51-1.51,16.46-7.3,23.65-11.06,2.63-1.38,5.52,1.08,5.53,4.69,0,2.86-.03,5.87-.07,8.6s-1.83,4.98-4.02,4.96c-4.01-.03-9.78-.12-14.36-.05-3.21.05-5.02,4.59-3.24,7.99,0,.02.02.04.03.05,2.74,5.32,5.08,11.72,6.41,17.83,3.05,14.03,3.26,24.71-.03,38.69-2.34,9.95-4.69,14.65-9.29,22.79-13.34,23.62-37.82,27.84-55.81,43.76-7.82,6.91-14.82,16.33-11.9,29.61,10.9,17.79,38.37-24.58,79.26-29.9,2.29-.3,4.25,2.14,4.26,5.06.01,5.19,0,10.38-.07,15.56-.03,2.85-1.91,5.1-4.16,4.99-8.29-.4-16.58.93-24.55,3.97-19.68,7.63-35.64,24.25-58.16,15.87-4.42-1.48-11.15-7.55-12.99-13.09-6.72-20.15,12.57-36.04,27.56-44.13,3.45-1.86,3.61-4.79.01-6.12-20.51-7.58-36.83-28.63-40.41-56.47-2.44-17.93.9-36.34,9.25-51.13,8.7-15.4,23.52-26.22,37.1-28.88ZM1539.56,868.96c6-9.84,10.74-19.36,9.48-31.41-2.03-19.48-10.74-37.73-22.99-49.63-8.44-8.2-18.93-13.36-29.66-12.82-43.25,3.46-34.24,71.03-9.88,95.95,8.23,8.42,39.84,17.39,53.05-2.08Z" style="fill: #716055;"/>
    <path d="M551.91,762.19c29.21-5.39,55.93,24.14,59.62,65.91,3.69,41.76-17.05,79.87-46.28,85.03-29.12,5.14-55.65-24.36-59.33-65.96-3.68-41.6,16.89-79.61,45.98-84.98ZM569.47,900.63c20.94-3.4,31.16-20.25,30.91-50.2-.3-37.36-24.79-77.54-51.87-76.44-4.1.74-7.44,1.29-11.37,3.23-15.83,7.79-21.39,31.84-19.31,53.93,3.37,35.71,25.37,69.49,51.53,69.49.04,0,.07-.01.11-.02Z" style="fill: #716055;"/>
    <path d="M671.03,762.19c29.21-5.39,55.93,24.14,59.62,65.91,3.69,41.76-17.05,79.87-46.28,85.03-29.12,5.14-55.65-24.36-59.33-65.96-3.68-41.6,16.89-79.61,45.98-84.98ZM688.58,900.63c20.94-3.4,31.16-20.25,30.91-50.2-.3-37.36-24.79-77.54-51.87-76.44-4.1.74-7.44,1.29-11.37,3.23-15.83,7.79-21.39,31.84-19.31,53.93,3.37,35.71,25.37,69.49,51.53,69.49.04,0,.07-.01.11-.02Z" style="fill: #716055;"/>
    <path d="M394.66,715.99c2.78-1.54,6.2.39,6.33,3.57.31,7.96-.03,20.55-.03,22.99l-.13,59.63c0,1.82-.25,1.89.77,2.91,1.16-.73,1.97-2.69,2.52-3.96,7.91-18.16,21.59-40.09,44.46-38.16,1.54.13,5.85.59,7.2,1.12,32,12.71,38.15,56.46,34.3,86.35-1.77,13.33-6.43,27.28-14.23,38.13-1.46,2.05-2.53,4.62-4.39,6.04-.61,1.02-1.37,1.79-2.16,2.67-11.76,13.08-29.31,20.41-46.88,16.38-10.22-2.34-16.19-7.34-22.27-14.38-2.16-2.5-6.07-2.39-8.14.18-.06.08-.13.16-.19.24-4.07,5.13-12.35,2.26-12.36-4.3-.04-34.21-.03-106.66-.69-147.88-.1-6.42-1.72-10.92-3.22-15.35-.76-2.25.07-4.71,2.01-6.07,3.74-2.62,11.7-7.14,17.09-10.12ZM434.76,907.89c10.23-1.71,12.4-3.56,17.77-10.36,18.84-23.88,21.75-59.69,16.01-88.61-2.57-12.92-12.16-35.65-28.29-33.9-10.19,1.53-15.99,7.88-22.03,15.87-5.79,7.67-17.57,24.21-17.26,35.89-.55,3.64-1.4,41.25.17,46.98,1.35,9,9.95,25.31,17.59,30.61,3.36,2.33,11.86,4.22,16.04,3.52Z" style="fill: #716055;"/>
    <path d="M931.52,767.06c13.67,9.84,12.27,25.14,12.37,40.07.19,25.8-.42,51.65.21,77.44.12,4.93,1.14,11.48,1.97,16.43.34,2.03,1.22,4.02,1.93,6.16.61,1.84-.7,3.75-2.63,3.88-5.25.37-15,.31-20.16.27-1.6-.01-2.91-1.29-2.94-2.89-.62-26.48.51-54.23,0-80.75-.23-12.97.71-26.1-1.07-38.96-.92-6.66-8.17-15.57-15.12-15.39-21.84-.95-45.16,31.44-46.51,51.75-1.7,25.95,0,56.18-.7,83.22-.04,1.57-1.29,2.82-2.86,2.88-4.66.17-11.1.09-15.78-.03-1.59-.04-2.86-1.32-2.89-2.91-.38-21.48.3-43.89-.02-65.13-.19-12.21,1.19-47.87-2.21-56.87-1.65-7.12-7.78-12.99-15.42-12.77-11.24.32-17.88,5.5-25.47,12.98-22.96,22.63-20.64,45.46-20.6,75.35v46.42c0,1.6-1.25,2.92-2.85,2.97-4.68.17-11.44.05-16.14-.05-1.62-.04-2.89-1.36-2.89-2.97l-.02-77.56c0-18.78.58-37.87-1.89-56.51-.24-1.79-1.31-3.88-1.96-5.69s.56-3.68,2.44-3.85h.03c4.48-.35,16.66-.03,21.74.31.42.37.77.68,1.06.93.74,2.58.42,16.25.26,26.53-.04,2.25,2.92,3.02,4.03,1.07,8.59-15.11,26.84-31.09,46.01-31.88,14.15-.59,24.27,2.15,30.31,16.3,2.69,6.32.81,19.27,5.19,18.18,3.99-.99,22.22-31.52,42.07-34.53,19.34-1.86,25.37,1.9,30.54,5.63Z" style="fill: #716055;"/>
    <path d="M1286.32,770.24c10.2,9.92,13.43,25.71,13.46,39.43.08,29.65-.03,59.18,0,88.82,0,1.33-.37,3.3-1.37,4.14-1.8,1.5-11.46,7.61-16.48,10.19-1.63.84-3.62-.16-3.85-1.98-.9-7.17.19-24.54.14-35.25-.01-2.73-3.64-3.68-5-1.31h0c-5.35,9.42-9.84,16.1-17.46,24.05-13.17,13.74-33.97,24.04-50.67,9.3-5.47-4.82-6.53-12.72-6.5-19.89-.17-21.42,34.34-44.58,50.5-54.59,2.53-1.57,26.6-14.13,29.94-18.69,3.15-4.3,4.08-18.2,3.07-24.34-1.92-11.19-9.08-15.86-12.69-18.41-13.49-9.52-37.51,21.24-50.34,35.42-2.68,2.97-7.61,1.27-7.92-2.72-.58-7.59-.92-17.5,1.02-19.2,9.35-9.09,24.83-16.98,37.04-21.85,3.92-1.56,21.93-8.73,37.09,6.91ZM1225.15,895.47c.15.11.33.21.5.3,4.31,2.1,8.1,2.32,12.75.8,14.23-4.66,26.45-22.5,32.85-35.29,2.04-4.07,3.37-8.24,4.21-12.24,2.13-10.03-8.93-17.62-17.44-11.89-16.48,11.1-34,24.85-37.24,42.18-.89,4.75-.74,9.74,2.08,13.8.66.95,1.38,1.68,2.3,2.35Z" style="fill: #716055;"/>
    <path d="M1096.15,886.22c.17.41.14.88-.13,1.24-1.11,1.51-3.94,4.05-4.99,5.07-49.9,48.55-128.69,10.2-127.97-57.43.45-42.02,37.26-74.69,78.81-73.59,16.5.43,48.56,6.54,49.23,28.62-.27,33.17-86.58,25.68-93.62,25.66-9.97-.02-14.75,7.32-13.65,17.23,1.52,13.68,5.33,26.52,13.81,38.07,11.06,15.3,27.79,25.54,46.45,28.42,21.22,3.22,31.76-4.15,47.51-15.62,1.1-.8,3.05-2.23,4.53,2.27,0,.01.01.03.02.04ZM990.01,798.42c-2.41,5.02-3.07,9.67,2.5,9.67l38.06-.05c4.96,0,11.07.1,17.06-.56,16.19-1.8,18.93-24.09,3.66-29.76-8.93-3.32-15.95-3.53-24.53-2.6-18.39,3.41-30.18,9.62-36.76,23.3Z" style="fill: #716055;"/>
    <path d="M1412.53,762.65c8,2.2,19.95,13.2,20.98,26.48.58,7.56.48,15.55.48,23.17l-.04,48.87c0,13.58-1.06,33.96,4.2,47.07.57,1.41-.41,2.94-1.92,3-6.61.25-15.63.07-22.08-.04-1.16-.02-2.08-.95-2.12-2.1-.25-7.37.02-17.23.03-24.32v-51.28c0-9.6,1.05-44.17-3.08-50.99-14.53-23.97-46.03,4.71-52.92,22.61-8.9,13.53-7.5,35.9-7.49,51.45.11,17.47.07,34.94-.12,52.41-.01,1.15-.91,2.1-2.06,2.15-4.88.22-12.55.15-17.45-.03-1.17-.04-2.09-1.01-2.09-2.18l-.02-70.73c0-19.78.65-40.23-1.56-59.89-.37-3.32-2.07-7.98-2.38-11.6-.1-1.15.77-2.15,1.92-2.29,4.28-.53,23.92-.79,23.94,4.06.01,3.4-2.8,18.93-2.34,27.41.13,2.31,3.28,2.87,4.21.75,0,0,21.07-28.22,36.49-33.77,8.21-2.95,14.94-3.27,25.42-.22Z" style="fill: #716055;"/>
    <path d="M1196.46,761c5.67-.87,1.31,9-1.28,16.03-1.07,2.91-4.49,5.64-7.57,5.95-2.99.3-5.96.78-8.9,1.44-28.65,6.68-38.97,31.21-34.65,117.51l.35,1.64c1.06,3.42-1.41,6.82-4.9,6.96-4.33.17-10.03.38-14.44.47-2.74.06-4.97-2.15-4.95-4.89.07-9.37-.11-19.05-.15-28.32.21-32.6.88-65.9-1.32-98.43-.1-1.41-1.04-4.73-1.8-7.87-.85-3.52,1.77-6.93,5.39-7.02,3.65-.09,7.95-.08,11.76-.02,4.16.07,7.48,3.47,7.47,7.63-.04,7.95-.05,22.7-.05,27.8,0,.64.81.93,1.2.42,1.73-2.28,3.97-6.23,4.88-7.99,7.78-15.21,25.53-27.84,48.98-31.3Z" style="fill: #716055;"/>
  </g>
  <g style="isolation: isolate;">
    <g style="isolation: isolate;">
      <path d="M617.06,987.89c0-1.06.86-1.92,1.92-1.92h37.64c7.82,0,14.14,2.22,18.95,6.65,4.81,4.43,7.21,10.66,7.21,18.69,0,6.9-2.15,12.91-6.44,18.03s-10.86,7.67-19.7,7.67h-25.68c-1.06,0-1.92.86-1.92,1.92v33.53c0,1.06-.86,1.92-1.92,1.92h-8.13c-1.06,0-1.92-.86-1.92-1.92v-84.57ZM663.52,998.12c-2.63-1.24-6.23-1.87-10.82-1.87h-21.74c-1.06,0-1.92.86-1.92,1.92v26.79c0,1.06.86,1.92,1.92,1.92h21.74c5.34,0,9.67-1.14,13-3.43,3.33-2.29,4.99-6.32,4.99-12.1,0-6.5-2.39-10.91-7.17-13.24Z" style="fill: #716055;"/>
      <path d="M742.21,985.97h8.25c1.06,0,1.92.86,1.92,1.92v84.57c0,1.06-.86,1.92-1.92,1.92h-8.25c-1.06,0-1.92-.86-1.92-1.92v-84.57c0-1.06.86-1.92,1.92-1.92Z" style="fill: #716055;"/>
      <path d="M813.2,985.97h8.13c1.06,0,1.92.86,1.92,1.92v74.04c0,1.06.86,1.92,1.92,1.92h40.51c1.06,0,1.92.86,1.92,1.92v6.69c0,1.06-.86,1.92-1.92,1.92h-52.49c-1.06,0-1.92-.86-1.92-1.92v-84.57c0-1.06.86-1.92,1.92-1.92Z" style="fill: #716055;"/>
      <path d="M946.31,985.97h10.86c.81,0,1.53.51,1.81,1.27l30.69,84.57c.46,1.25-.47,2.58-1.81,2.58h-9c-.82,0-1.56-.53-1.82-1.31l-8.08-23.87c-.26-.78-1-1.31-1.82-1.31h-32.24c-.81,0-1.53.51-1.81,1.27l-8.65,23.94c-.28.76-1,1.27-1.81,1.27h-8.15c-1.34,0-2.27-1.34-1.8-2.6l31.84-84.57c.28-.75,1-1.25,1.8-1.25ZM963.79,1035.6l-10.78-31.38c-.59-1.71-3-1.74-3.63-.03l-11.46,31.38c-.46,1.25.47,2.58,1.81,2.58h22.24c1.32,0,2.25-1.3,1.82-2.55Z" style="fill: #716055;"/>
      <path d="M1096.14,987.89v6.69c0,1.06-.86,1.92-1.92,1.92h-25.95c-1.06,0-1.92.86-1.92,1.92v74.04c0,1.06-.86,1.92-1.92,1.92h-8.25c-1.06,0-1.92-.86-1.92-1.92v-74.04c0-1.06-.86-1.92-1.92-1.92h-25.95c-1.06,0-1.92-.86-1.92-1.92v-6.69c0-1.06.86-1.92,1.92-1.92h67.84c1.06,0,1.92.86,1.92,1.92Z" style="fill: #716055;"/>
      <path d="M1149.67,985.97h60.32c1.06,0,1.92.86,1.92,1.92v6.99c0,1.06-.86,1.92-1.92,1.92h-48.64c-1.06,0-1.92.86-1.92,1.92v23c0,1.06.86,1.92,1.92,1.92h44.67c1.06,0,1.92.86,1.92,1.92v6.38c0,1.06-.86,1.92-1.92,1.92h-44.67c-1.06,0-1.92.86-1.92,1.92v26.13c0,1.06.86,1.92,1.92,1.92h49.54c1.06,0,1.92.86,1.92,1.92v6.69c0,1.06-.86,1.92-1.92,1.92h-61.22c-1.06,0-1.92-.86-1.92-1.92v-84.57c0-1.06.86-1.92,1.92-1.92Z" style="fill: #716055;"/>
      <path d="M1274.31,1045.85c1,0,1.82.78,1.92,1.78.42,4.21,1.52,7.69,3.29,10.44,3.83,5.86,10.57,8.79,20.24,8.79,4.33,0,8.27-.64,11.83-1.93,6.88-2.49,10.32-6.94,10.32-13.36,0-4.81-1.46-8.25-4.37-10.29-2.95-2-7.58-3.75-13.88-5.24l-11.6-2.71c-7.58-1.77-12.94-3.71-16.09-5.84-5.44-3.69-8.16-9.21-8.16-16.55,0-7.94,2.67-14.47,8.02-19.56,5.35-5.1,12.93-7.65,22.73-7.65,9.02,0,16.68,2.24,22.99,6.71,5.88,4.17,9.01,10.66,9.41,19.49.05,1.08-.85,1.97-1.93,1.97h-7.62c-.96,0-1.75-.71-1.9-1.65-.65-3.94-1.8-7.02-3.46-9.24-3.5-4.61-9.45-6.92-17.83-6.92-6.77,0-11.64,1.48-14.6,4.45s-4.44,6.42-4.44,10.35c0,4.33,1.75,7.5,5.25,9.51,2.29,1.28,7.48,2.89,15.57,4.82l12.01,2.83c5.79,1.36,10.26,3.23,13.41,5.6,5.44,4.13,8.16,10.13,8.16,18,0,9.79-3.47,16.79-10.42,21.01-6.95,4.21-15.02,6.32-24.21,6.32-10.72,0-19.12-2.81-25.18-8.43-5.65-5.19-8.62-12.1-8.9-20.73-.04-1.07.86-1.96,1.93-1.96h7.52Z" style="fill: #716055;"/>
    </g>
  </g>
  <g>
    <g id="b" data-name="tkHz6i1">
      <g>
        <path d="M1001.89,525.08c-14.12-12.18,12.56-24.75-8.27-43.34-12.09-10.73-7.21-16.67-4.79-30.9.18-1.04,1.57-1.36,2.13-.48,4.94,7.76-6,22.54,5.8,27.96,1,.46,2.02-.57,1.57-1.57-2.09-4.7-2.48-9.19-.42-13.87,4.55-10.15,1.56-20.55-6.76-27.45-17.43-14.31,8.33-29.27-13.27-50.08-24.85-23.94-1.17-44.36-28.23-70.25-12.23-11.71-27.71-16.39-44.62-16.13-10.8.26-21.33.13-31.35,4.29-10.28,4.16-19.51,13.4-18.73,25.24.25,2.59,3.53,6.46,4.98,9.41.15.3.15.67.02.98-5.14,12.33-19.9,10.83-15.28,21.61,1.43,3.25,1.56,7.55.78,11.06l-3.51,16.78c-.52,2.47.65,7.68,2.34,9.24,6.76,6.24,20.16,3.25,23.55,7.94,4.21,5.95,1.82,14.02-1.12,20.28-.25.53-.85.8-1.41.62-22.96-7.4-67.96-31.11-84.89-44.57-16.65-13.27-30.96-26.41-49.3-37.6-23.16-13.92-45.53-28.49-65.95-46.31-19.77-17.17-37.73-34.6-58.67-50.34-1.69-1.43-7.55-1.95-7.94,0-3.77,21.46-5.72,18.73,7.81,34.99,7.54,9.11,14.44,17.3,21.46,26.67,12.62,16.91,21.2,8.85,34.86,24.72,13.66,16,27.06,31.22,41.76,46.18,24.2,24.59,37.99,29.66,63.87,50.08,18.47,14.57,37.33,27.58,57.37,39.94,7.28,4.42-8.33,7.68-16.52,22.11-11.19,19.64,8.33,35.64,7.28,42.54-1.65,10.44-13.88,31.3-14.25,31.8-.43.59-1.3.63-1.8.1-1.49-1.57-2.97-3.12-4.45-4.66-.32-.33-24.83-24.52-34.65-33.09l-68.3-59.84c-8.85-7.68-15.09-16.65-24.59-23.29-8.2-5.85-17.95-9.37-25.89-15.74-25.63-20.81-49.3-42.41-73.24-65.04-18.86-17.82-34.86-36.55-50.47-56.98-9.76-12.88-62.57-83.52-79.35-68.82-2.73,2.47-3.25,7.68-2.08,11.45l5.98,17.95c2.08,6.24,7.41,12.49,11.32,17.95,12.75,17.82,4.94,23.81,7.02,43.45,1.17,11.45,10.67,17.69,21.72,17.17,9.37-.39,17.04,2.6,21.59,10.93l20.94,38.64c46.96,86.51,85.86,71.94,113.7,120.72l37.07,64.91c13.53,23.68,27.45,45.79,44.23,66.99,9.24,11.58,19.12,21.59,31.22,29.53,32.78,21.72,74.54,15.22,99.78-14.7,8.85-10.54,14.7-21.98,21.59-34.08,16.92-29.51,32.71-58.65,44.96-90.94.36-.94,1.65-1.04,2.12-.16,1.76,3.28,4.15,8.94,4.32,9.43.09.27,4.22,9.83,5.92,16.4,2.36,9.14,10.55,13.12,13.03,11.96,6.01-2.82-5.81-4.67-1.43-17.4,2.08-6.05,3.8-7.58,7.35-12.04.57-.71,1.71-.55,2.04.3,2.87,7.48-6.16,24.52,2.6,33.41,4.42,4.55,13.66,6.89,19.51,2.34,2.6-1.95-8.07-1.43-10.8-6.24-1.3-2.21-1.43-7.28-.39-9.5l6.56-14.78c.47-1.07,2.09-.88,2.24.28.71,5.29-4.64,12-.48,18.8.98,1.67,3.82,3.12,6.44,3.56.98.16,1.65-.94,1.14-1.79-7.75-13,12.27-15.37-.04-36.63-.52-.78-1.04-2.86-1.04-3.64,0-.39,1.43-.65,1.82-.39l1.95,1.04c8.07,4.03,9.76,11.32,6.76,19.51l-.78,1.95c-1.17,3.25,8.98-1.95,8.98-11.84,0-16.69-19.63-13.19-7.47-37.9.59-1.19,2.38-.68,2.23.64l-.88,7.73c-.39,3.25,1.04,7.94,3.25,9.76,2.15,1.78,4.85,2.95,7.59,3.13,1.1.07,1.65-1.35.81-2.06ZM523.75,332.13c-4.68,4.42-8.85,8.46-13.4,13.4-1.04,1.3-4.42,2.08-5.72,1.04l-.13.26c-14.96-11.06-34.21.91-35.9-18.08-1.43-16.65,6.63-25.24-7.28-44.36-4.84-6.69-9.32-13.63-13.55-20.91-.34-.58-.12-1.34.48-1.65l4.59-2.37c.81-.42.86-1.57.07-2.05l-6.93-4.24c-1.04-.65-2.21-3.51-2.73-4.55-.52-1.04,1.56-4.42,2.73-4.03,15.22,5.07,41.11,35.12,51.77,48.65l26.93,34.34c.65.91,0,3.64-.91,4.55ZM914.66,362.7v.13c2.6.26,6.11,7.54,1.17,14.05-1.56,2.08-7.54,4.68-9.63,2.86-4.81-4.29,4.98-17.04,8.46-17.04ZM886.17,324.07l2.34,13.45c-5.46-3.51-5.72-8.12-2.34-13.45ZM896.31,570.02l-18.87,35.68-57.57-47.38c-.27-.23-.43-.56-.44-.91-.01-5.03,1.67-9.09,3.82-13.4,1.04-2.08,2.82-1.31,3.42-1.06,24.39,10.27,43.84,17.45,68.95,25.4.7.22,1.03,1.02.69,1.67ZM922.72,489.8c-9.5,14.57-.26,14.05-7.42,36.55-.91,2.6-4.29,5.85-7.28,5.59-53.99-4.42-55.94-44.62-53.99-44.1.52.13,1.95.52,2.6.91l12.34,8.06c1.05.69,2.32-.54,1.66-1.61-6.6-10.62-27.24-22.53-36.63-28.44-16.91-10.67-33.17-20.81-49.17-33.43-16-12.62-31.74-23.94-48.52-35.64-11.45-7.94-21.46-17.04-30.83-27.45l-37.33-41.5c-15.22-16.78-21.33-7.55-34.6-23.68l-22.24-27.06c-2.08-2.54-3.98-4.89-5.47-7.71-.53-1.01-6.01-7.42-3.1-7.54,1.46-.06,2.52-1.21,2.19-2.63-.69-2.95.41-5.29,2.61-3.59l52.42,46.7c20.94,18.6,44.23,33.3,67.91,48.13,16.78,10.54,30.96,21.85,45.53,35.12,10.02,9.11,22.63,14.57,34.21,21.46,36.42,21.85,51.25,21.2,81.69,37.6,11.71,6.24,15.48,13.14,20.42,16,3.64,2.21-4.16-17.17-27.71-26.8-5.46-2.34-7.02-5.33-6.37-11.32l1.95-19.25c.26-2.73,19.77-8.33,8.33-7.94-10.28.39-21.98.65-32.91-1.3-3.77-.65-4.81-5.72-4.42-8.46,1.69-10.54,17.69-4.68,9.63-11.06-11.68-9.29,1.86-8.28-7.84-16.98-.56-.5-.51-1.41.11-1.84l5.51-3.82c13.3-9.31,8.62-18.63,15.11-29.72.59-1.02,2.18-.58,2.19.6.03,4.67-2.07,10.8-.51,13.51,2.21,3.9,11.97,2.73,20.42,9.5,5.85,4.68,7.02,10.93,4.16,17.56-6.89,16.26,11.45,19.51-2.34,37.6-7.02,9.24-5.2,22.24,5.46,27.71l-.26.13c11.32,5.85,4.42,20.29,8.59,15.61,4.68-5.2,3.12-15.22-4.29-19.38-4.96-2.76-7.68-8.5-5.86-13.67.37-1.05,1.89-.99,2.23.07,1.93,6.06,5.06,11.15,10.27,14.77,19.38,13.79-4.16,28.88,11.19,46.18,4.16,4.81,3.77,11.32.39,16.52ZM979.11,417.85c-.37.98-1.74,1.05-2.18.11-1-2.16-1.71-4.6-1.52-6.21l1.43-12.77c.13-1.19,1.73-1.43,2.25-.36,2.93,6.02,2.55,12.53.02,19.23Z" style="fill: #716055;"/>
        <path d="M1087.54,353.6c.78-2.99,1.04-9.11-1.04-9.63-3.72-.9-9.97,2.88-12.17,6.45-.46.74.01,1.7.88,1.8l12.34,1.38h0Z" style="fill: #716055;"/>
        <path d="M882.79,351.26l-12.29,1.85c-.76.11-1.43-.52-1.35-1.29l.75-7.19c.07-.71.76-1.19,1.46-1.02,5.17,1.22,7.58,2.71,11.43,7.64h0Z" style="fill: #716055;"/>
        <path d="M1087.54,353.6l-12.36-1.39c-.86-.1-1.32-1.04-.88-1.79,2.17-3.66,8.47-7.47,12.21-6.45,2.21.52,1.82,6.63,1.04,9.63h0Z" style="fill: #716055;"/>
      </g>
    </g>
    <path d="M1510.32,239.12c-17.04-11.71-65.3,51.38-75.32,64.78-18.21,24.2-37.46,46.18-59.97,66.73l-54.9,50.08c-21.85,19.9-33.56,16.13-52.29,38.25-5.85,6.89-12.1,12.75-18.99,18.73l-75.32,65.56c-8.7,7.47-15.67,15.41-23.4,23.8-.76.82-2.1.81-2.8-.07-6.12-7.73-9.25-16.86-12.04-26.21-1.69-6.11-1.04-10.93,2.6-15.87,10.54-14.05,8.2-32.26-5.2-43.32-2.81-2.27-5.54-4.9-8.17-7.6-.82-.84-.64-2.22.36-2.84,21.59-13.4,41.04-27.1,60.49-42.64,27.32-21.85,44.88-28.49,70.51-57.76l31.48-35.9c14.83-17.04,22.77-7.68,35.12-24.33,8.33-10.93,16.52-20.94,25.5-31.48,9.11-10.8,8.59-12.75,5.07-30.18-.52-2.6-7.28-2.47-9.63-.65-19.64,15.09-36.42,31.35-54.9,47.74-21.33,18.86-45.01,33.3-68.82,48.78-12.36,8.07-24.46,15.61-34.86,26.02-10.15,10.28-20.81,17.69-33.56,24.85-4.68,2.6-63.87,36.16-65.82,29.53-1.43-4.81-2.86-14.7.91-19.38,4.55-5.72,23.03-1.17,26.15-10.8v-.13c3.77-11.71-6.89-21.46-.39-34.86,4.42-9.11-16.2-14.58-15.68-24.08.26-4.16,7.61-3.37,5.01-11.96-8.97-30.04-48.77-32.35-72.57-19.91l-.03.02c-26.04,10.32-28.31,36.83-25.27,58.49h-.01c1.71,12.22,4.58,31.37.88,43.74-.95,3.18-1.79,14.55,2.26,12.65,2.22-1.04,10.62-5.16,13.26-1.44,3.8,5.36,11.37-.71,14.03,2.56,1.03,1.26.97,8.35.48,12.09-.98,7.45-6.3,22.46-6.91,29.4-1.96,22.58-1.41,47.34,3.57,66.15,6.76,25.24,11.38,40.55,24.13,63.58l32.78,59.19c9.89,17.82,25.37,31.61,44.62,38.25,25.5,8.85,52.56,2.21,73.24-14.96,16.13-13.53,28.75-29.66,40.59-47.35,19.51-29.14,36.03-58.8,52.95-89.37,17.04-30.7,24.33-42.02,54.12-61.14,27.06-17.3,48.91-39.29,64.52-67.51l27.58-49.95c4.42-8.07,10.93-11.71,20.29-10.93,11.97.91,22.24-5.98,22.89-18.47.91-17.04-4.16-24.98,4.94-39.16,15.09-23.42,10.28-11.32,19.77-40.98,1.04-2.86-1.04-8.33-3.25-9.76ZM1058.59,357.91c0-.88,4.33-8.43,4.73-9.32.02-.05.04-.1.05-.15l5.7-20.73c.13-.65,1.94-1.19,1.82.65l-.55,10.73c-.05.97.66,1.85,1.63,1.93,4.6.34,9.85-2.81,11.56-5.38,1.8-2.71,4.48-3.81,5.81-.2,3.54,9.63,15.07,19.22,15.07,19.22,2.91,3.15,1.27,4.17.11,5.48-8.51,9.55,5.49,4.59-7.35,16.1l-2.08,1.95c-2.2,3.11,8.2-.26,11.19,6.24v-.26c7.54,16.13-28.8,11.71-36.74,11.06-.92-.05-1.36-.27-2.4-1.08-.75-.58-1.1-1.81-.73-2.69,1.85-4.39,2.83-9.17,1.36-13.53-1.96-5.83-6.96-9.63-9.3-15.17-.04-.09-.06-.19-.06-.28-.04-1.51,0-3.03.19-4.56ZM1062.18,386.9c-.56,1.65-1.11,4.16-2.18.58-.45-1.5-.3-2.98-.51-4.76-.39-3.27-1.84-3.83-2.08-8.14,0-1.18-.45-4.36,1.81-.37,2.72,4.79,4.48,8.18,2.96,12.68ZM1045.64,354.51c3.93,0,8.32,14.02,4.4,14.02-1.8,0-6.64-3.88-7.38-6.71-.88-3.35.86-7.31,2.98-7.31ZM1035.88,455.13c1.67-10.45,4.32-20.09,6.25-28.95.51-2.36.09-6.47,1.42-7.42,1.76-1.22,2.43-1.66,7.24-.7,4.4.87,9.38-1.04,12.13-2.75,1.01-.63,5.43.37,6.6.45,1.59.12,3.76-.21,4.26-2.74.49-2.22-1.96-5.41-4.8-10.73-.8-1.49-.06-3.06,1.53-2.48l3.62.93c2.71,1,4.54,3.53,4.61,6.42.21,7.79.32,22.49-1.86,23.71-8.51,4.86-27.05,12.73-33.01,23.75-.95,1.75,1.26,3.5,2.81,2.26,11.21-9,23.02-15.52,36.84-20.55,24.07-8.85,46.44-19.12,68.43-32.26,10.15-6.11,20.81-11.45,29.4-19.77,13.01-12.62,26.28-22.64,41.63-32.39,24.2-15.35,47.74-30.57,69.34-49.43,17.69-15.48,33.56-31.48,52.29-46.31,4.32-3.63,4.18,7.45,4.17,8.33v.11c-.52,2.59-3.39,6.66-4.56,8.08-9.89,11.45-18.99,22.24-28.1,34.21-10.54,13.66-19.12,5.72-34.86,23.42l-30.31,34.34c-10.8,12.23-22.64,22.9-35.77,32.65l-55.16,40.59c-18.34,13.53-36.94,24.98-56.33,36.94-4.8,3-17.42,11.6-22.25,18.61-1.17,1.71.92,3.75,2.61,2.54,4.35-3.13,8.35-5.91,14.05-9.05v.13c-2.86,31.09-27.45,40.59-53.2,44.49-5.85.91-15.35-36.61-9-76.42ZM1130.86,557.78c-.08.46-.34.87-.7,1.16-18.9,14.93-53.91,44.62-53.91,44.62-1.3,1.04-4.42.78-5.07-.39l-17.46-31.15c-.39-.78-1.93-4.47,2.34-5.2,23.99-6.47,45.84-14.25,68.48-24.43.96-.43,2.06.03,2.46,1,2,4.84,4.68,9.49,3.86,14.39ZM1498.9,256.66c-1.03.63-1.16,2.08-.28,2.9l2.79,2.6c.64.6.77,1.57.31,2.32-4.01,6.53-7.94,12.64-12.22,18.74-12.75,18.21-7.54,25.11-7.94,44.23l-.13.13c-.13,9.11-6.76,13.27-14.7,13.14-23.16-.52-20.03,11.45-26.67,4.68l-14.44-14.57c-1.3-1.43,1.04-4.81,2.21-6.37,13.53-17.17,26.28-33.82,40.72-50.21,4.68-5.46,32.65-33.82,37.2-29.14,3.61,3.72-2.07,8.62-6.87,11.55Z" style="fill: #716055;"/>
  </g>
</svg>