<?xml version="1.0" encoding="UTF-8"?>
<svg id="a" data-name="Layer 1" xmlns="http://www.w3.org/2000/svg" width="3128.06" height="664.68" viewBox="0 0 3128.06 664.68">
  <g>
    <path d="M1741.25,229.1c17.65-3.46,29.87-.78,46.56,10.56,3.87,2.63,8.49,8.22,12.84,11.37,1.23.89,2.68,1.15,4.05.69,6.22-2.08,22.7-10.07,32.62-15.25,3.63-1.9,7.61,1.49,7.63,6.47.01,3.95-.04,8.1-.1,11.86-.06,3.82-2.52,6.86-5.54,6.84-5.52-.04-13.49-.17-19.81-.06-4.43.07-6.92,6.33-4.47,11.02.01.02.03.05.04.07,3.78,7.34,7.01,16.17,8.84,24.6,4.2,19.36,4.5,34.08-.04,53.36-3.23,13.73-6.47,20.21-12.82,31.43-18.4,32.57-52.16,38.4-76.98,60.35-10.78,9.53-20.44,22.52-16.41,40.84,15.03,24.54,52.92-33.91,109.32-41.24,3.15-.41,5.87,2.95,5.88,6.98.02,7.16-.01,14.31-.09,21.47-.04,3.93-2.64,7.03-5.73,6.88-11.43-.55-22.87,1.29-33.86,5.47-27.15,10.52-49.16,33.45-80.23,21.89-6.1-2.04-15.38-10.41-17.92-18.05-9.27-27.79,17.34-49.7,38.01-60.86,4.76-2.57,4.99-6.61.02-8.44-28.29-10.45-50.8-39.49-55.73-77.89-3.36-24.73,1.24-50.13,12.76-70.52,11.99-21.25,32.44-36.16,51.17-39.84ZM1795.57,376.67c8.28-13.58,14.82-26.7,13.08-43.33-2.8-26.87-14.81-52.04-31.71-68.45-11.64-11.31-26.11-18.43-40.91-17.69-59.65,4.77-47.22,97.98-13.63,132.34,11.36,11.61,54.95,23.98,73.17-2.87Z" style="fill: #3f3936;"/>
    <path d="M433.31,229.4c40.29-7.44,77.14,33.3,82.24,90.9,5.09,57.6-23.51,110.17-63.83,117.29-40.16,7.09-76.76-33.6-81.83-90.98-5.07-57.38,23.29-109.8,63.43-117.21ZM457.52,420.35c28.88-4.68,42.97-27.93,42.64-69.24-.41-51.53-34.19-106.96-71.55-105.43-5.66,1.02-10.27,1.78-15.69,4.45-21.84,10.74-29.51,43.91-26.63,74.39,4.65,49.26,34.99,95.85,71.08,95.85.05,0,.1-.02.15-.03Z" style="fill: #3f3936;"/>
    <path d="M597.6,229.4c40.29-7.44,77.14,33.3,82.24,90.9,5.09,57.6-23.51,110.17-63.83,117.29-40.16,7.09-76.76-33.6-81.83-90.98-5.07-57.38,23.29-109.8,63.43-117.21ZM621.81,420.35c28.88-4.68,42.97-27.93,42.64-69.24-.41-51.53-34.19-106.96-71.55-105.43-5.66,1.02-10.27,1.78-15.69,4.45-21.84,10.74-29.51,43.91-26.63,74.39,4.65,49.26,34.99,95.85,71.08,95.85.05,0,.1-.02.15-.03Z" style="fill: #3f3936;"/>
    <path d="M216.41,165.67c3.84-2.13,8.55.54,8.72,4.92.43,10.98-.03,28.34-.04,31.71l-.18,82.25c0,2.51-.34,2.61,1.07,4.01,1.6-1.01,2.72-3.71,3.48-5.46,10.91-25.05,29.79-55.29,61.32-52.64,2.13.18,8.07.81,9.93,1.55,44.14,17.53,52.62,77.88,47.31,119.11-2.44,18.39-8.87,37.63-19.62,52.6-2.01,2.83-3.49,6.37-6.06,8.33-.84,1.41-1.89,2.47-2.97,3.68-16.22,18.04-40.42,28.16-64.66,22.6-14.1-3.23-22.33-10.12-30.72-19.84-2.98-3.45-8.38-3.3-11.23.25-.09.11-.17.22-.26.33-5.62,7.08-17.03,3.11-17.04-5.93-.06-47.19-.04-147.11-.95-203.97-.14-8.86-2.37-15.06-4.44-21.18-1.05-3.1.1-6.5,2.78-8.38,5.16-3.61,16.14-9.84,23.58-13.96ZM271.72,430.37c14.11-2.35,17.11-4.91,24.51-14.29,25.99-32.93,30-82.33,22.08-122.22-3.54-17.82-16.78-49.18-39.02-46.76-14.05,2.1-22.06,10.86-30.38,21.89-7.99,10.58-24.23,33.4-23.81,49.5-.75,5.02-.4,60.55.24,64.8,1.86,12.41,13.72,34.91,24.26,42.22,4.63,3.21,16.36,5.81,22.12,4.85Z" style="fill: #3f3936;"/>
    <path d="M956.9,236.12c18.85,13.57,16.93,34.68,17.06,55.26.27,35.59-.58,71.24.29,106.81.17,6.8,1.58,15.83,2.71,22.66.47,2.8,1.68,5.55,2.66,8.5.84,2.54-.97,5.17-3.63,5.35-7.24.51-20.69.42-27.81.37-2.21-.02-4.01-1.78-4.06-3.99-.86-36.52.7-74.81.01-111.38-.32-17.89.98-35.99-1.47-53.74-1.27-9.18-11.27-21.48-20.85-21.23-30.12-1.31-62.29,43.37-64.15,71.39-2.35,35.79,0,77.48-.96,114.79-.06,2.16-1.78,3.89-3.94,3.97-6.43.23-15.32.12-21.77-.04-2.19-.06-3.94-1.82-3.98-4.01-.52-29.62.41-60.53-.03-89.84-.26-16.85,1.64-66.03-3.05-78.44-2.28-9.81-10.73-17.92-21.27-17.62-15.5.44-24.67,7.58-35.13,17.9-31.67,31.22-28.47,62.71-28.42,103.93v64.03c0,2.21-1.73,4.02-3.93,4.1-6.45.23-15.78.07-22.27-.07-2.23-.05-3.99-1.87-3.99-4.1l-.03-106.98c0-25.91.8-52.24-2.61-77.95-.33-2.47-1.8-5.36-2.71-7.85s.77-5.07,3.37-5.31h.04c6.18-.49,22.98-.04,29.98.43.58.51,1.06.93,1.47,1.28,1.03,3.56.58,22.42.36,36.6-.05,3.1,4.03,4.17,5.56,1.47,11.85-20.84,37.02-42.88,63.46-43.98,19.52-.81,33.48,2.96,41.8,22.48,3.72,8.72,1.12,26.58,7.16,25.08,5.5-1.37,30.65-43.48,58.02-47.63,26.67-2.57,34.99,2.62,42.12,7.76Z" style="fill: #3f3936;"/>
    <path d="M1446.27,240.5c14.07,13.68,18.53,35.47,18.57,54.39.11,40.89-.04,81.63.01,122.51,0,1.84-.52,4.56-1.89,5.71-2.49,2.07-15.81,10.5-22.73,14.06-2.25,1.16-5-.22-5.31-2.74-1.25-9.89.26-33.84.19-48.62-.02-3.77-5.02-5.08-6.9-1.81h0c-7.38,12.99-13.57,22.2-24.08,33.17-18.17,18.96-46.85,33.16-69.89,12.82-7.54-6.65-9-17.54-8.97-27.43-.24-29.54,47.37-61.49,69.65-75.3,3.49-2.16,36.69-19.49,41.3-25.78,4.35-5.93,5.62-25.1,4.24-33.58-2.65-15.44-12.53-21.87-17.5-25.39-18.6-13.14-51.74,29.3-69.43,48.85-3.7,4.09-10.5,1.75-10.92-3.75-.8-10.47-1.27-24.13,1.41-26.48,12.89-12.53,34.24-23.42,51.09-30.14,5.41-2.16,30.25-12.04,51.16,9.54ZM1361.91,413.23c.21.15.45.29.69.41,5.95,2.9,11.18,3.2,17.58,1.1,19.63-6.43,36.48-31.03,45.31-48.68,2.81-5.61,4.64-11.37,5.81-16.88,2.93-13.83-12.32-24.3-24.05-16.4-22.73,15.3-46.89,34.27-51.37,58.18-1.23,6.55-1.03,13.43,2.86,19.03.91,1.31,1.9,2.31,3.17,3.24Z" style="fill: #3f3936;"/>
    <path d="M1183.98,400.48c.23.56.19,1.22-.17,1.71-1.53,2.08-5.44,5.58-6.89,6.99-68.82,66.97-177.51,14.07-176.51-79.21.62-57.96,51.39-103.01,108.7-101.5,22.76.6,66.99,9.03,67.91,39.48-.38,45.75-119.42,35.41-129.14,35.39-13.75-.03-20.34,10.1-18.82,23.77,2.09,18.87,7.35,36.58,19.05,52.52,15.26,21.1,38.33,35.22,64.07,39.21,29.27,4.45,43.81-5.72,65.53-21.54,1.52-1.1,4.21-3.08,6.25,3.14,0,.02.02.04.02.06ZM1037.58,279.38c-3.33,6.93-4.24,13.34,3.45,13.33l52.5-.07c6.84,0,15.27.14,23.54-.78,22.32-2.48,26.11-33.22,5.05-41.05-12.32-4.58-22-4.87-33.83-3.58-25.37,4.7-41.63,13.27-50.7,32.14Z" style="fill: #3f3936;"/>
    <path d="M1620.36,230.04c11.03,3.04,27.52,18.2,28.93,36.52.81,10.43.66,21.45.66,31.96l-.05,67.41c-.01,18.72-1.46,46.84,5.8,64.92.78,1.94-.56,4.05-2.65,4.13-9.12.35-21.56.1-30.46-.06-1.6-.03-2.87-1.3-2.92-2.9-.35-10.16.03-23.76.04-33.54v-70.73c0-13.24,1.45-60.92-4.25-70.33-20.04-33.06-63.5,6.5-72.99,31.19-12.28,18.66-10.34,49.52-10.33,70.96.15,24.1.09,48.2-.17,72.29-.02,1.59-1.26,2.9-2.85,2.97-6.73.3-17.31.21-24.07-.04-1.61-.06-2.88-1.39-2.88-3l-.03-97.55c-.01-27.29.9-55.49-2.15-82.6-.51-4.58-2.85-11-3.28-16-.14-1.59,1.07-2.96,2.65-3.16,5.9-.72,32.99-1.08,33.03,5.59.02,4.69-3.86,26.11-3.23,37.81.17,3.18,4.52,3.95,5.81,1.04,0,0,29.07-38.93,50.33-46.58,11.32-4.07,20.61-4.51,35.06-.3Z" style="fill: #3f3936;"/>
    <path d="M1322.34,227.76c7.82-1.2,1.81,12.41-1.77,22.11-1.48,4.01-6.19,7.78-10.45,8.21s-8.23,1.08-12.28,1.99c-39.52,9.21-53.75,43.05-47.79,162.09l.48,2.26c1.46,4.72-1.94,9.41-6.76,9.6-5.98.24-13.83.52-19.92.66-3.78.08-6.86-2.97-6.83-6.75.09-12.92-.15-26.28-.21-39.07.29-44.96,1.22-90.9-1.82-135.76-.13-1.95-1.44-6.52-2.48-10.85-1.17-4.86,2.44-9.56,7.44-9.69,5.03-.13,10.97-.11,16.21-.03,5.74.09,10.32,4.78,10.3,10.52-.05,10.96-.06,31.32-.07,38.34,0,.88,1.12,1.28,1.66.58,2.39-3.15,5.48-8.59,6.73-11.03,10.73-20.97,35.21-38.4,67.56-43.17Z" style="fill: #3f3936;"/>
  </g>
  <g>
    <path d="M2024.19,229.98c2.33-.13,1.61-.4,3.46.72,2.66,9.38-2.03,53.05,1.92,56.15,4.99-2.97,14.68-38.51,40.99-51.27,10.61-5.14,22.7-5.47,33.76-1.57,16.25,5.73,27.25,19.58,34.43,34.66,15.81,33.18,16.88,75.38,4.61,109.79-7.47,20.96-21.31,42.38-41.43,53.05-6.85,3.63-13.23,4.7-18.95,7.41-14.68,2.06-27.26,1.44-40.6-6.1-3.39-1.91-11.09-9.48-13.69-9.53-1.44,4.94-.41,56.03.8,64.51.6,4.13,3.37,14.19,4.67,18.6-2.68,2.14-31.22,1.41-36.38,1.14-.53-16.22-.12-34.94-.14-51.33l.02-99.09v-48.52c-.02-8.43.15-18.11-.34-26.42-.6-10.15-3.58-20.63-5.28-30.76,1.86-4.46,25.56-15.85,31.92-21.26l.23-.2ZM2071.6,431.97c14.85-3.12,24.56-11.14,32.74-23.74,19.79-30.44,24.17-75.46,16.62-110.33-3.42-15.79-9.81-36.52-24.06-45.76-4.06-2.63-10.29-4.88-15.17-4.06-12.82,1.73-21.85,10.48-29.41,20.37-5.74,7.52-10.37,15.83-14.58,24.28-3.05,6.14-6.71,12.88-8.43,19.56-2.84,11.02-1.15,29.45-1.16,41.29-.01,10.65-.93,22.35.49,32.88,1.72,12.66,12.81,31.39,22.92,39.04,4.65,3.52,13.06,7.44,19.04,6.66.34-.04.68-.12,1.02-.2Z" style="fill: #3f3936;"/>
    <path d="M2395.42,228.7c5.33-.87,24.96,5.33,28.84,8.56,36.6,30.42,19.82,93.59,23.7,135.67,1.13,12.31,1.25,39.44-2.44,50.54-.39,1.02-25.43,16.01-26.45,15.98-4.88-3.62,1.42-55.58-2.08-65.62-1.66.26-10.53,19.05-12.63,22.18-12.64,18.82-33.41,41.98-57.6,43.77-23.15,1.72-36.68-10.83-38.1-33.77,1.61-41.65,59.45-71.22,90.64-90.51,2.05-1.17,17.5-10.34,17.61-11.99,1.05-15.38,3.76-53.12-10.14-62.86-21.85-15.32-73.5,59.8-79.89,60.82-.66-2.65-.83-37.86.38-39.22,9.33-10.58,37.18-25.04,51-30.3,4.4-1.67,12.04-1.51,16.93-3.2l.21-.07ZM2339.15,405.4c2.02,3.67,3.78,6.55,7.23,9.05,8.09,2.78,13.88,2.22,21.6-1.56,21.92-10.72,40.1-40.54,47.7-62.93,1.78-5.24,3.38-28.16,1.45-32.56-.85-.28-1.51-.54-2.41-.4-25.12,18.37-70.23,41.15-75.46,74.9-.69,4.4-.33,9.08-.12,13.51Z" style="fill: #3f3936;"/>
    <path d="M2799.15,399.82c-3.76,3.59-7.29,8.14-11.19,11.58-17.61,15.6-40.3,26.63-64.01,27.88-23.68,1.4-47.1-5.6-66.13-19.75-3.39-2.55-7.25-7.65-11.68-10.06-.67-.37-6.36-7.66-7.24-8.66-15.18-17.4-24.36-41.03-25-64.09-.86-27.39,9.32-53.98,28.24-73.81,19.03-20.39,45.41-32.35,73.3-33.22,22.52-.59,46.86,3.33,64.85,18.69,4.78,4.15,10.46,13,10.09,19.62-2.28,39.94-73.36,34.13-98.2,34.18l-52.91-.02c-2.7,63.45,40.07,122.95,108.89,117.24,17.06-1.41,38.29-11.48,49.15-24.96l2.26.77c.46,1.85-.55,2.16-.42,4.61ZM2640.99,293.5l67.19-.07c13.56-.1,38.27.1,48.44-10.39,2.13-2.19,3.49-4.97,3.47-8.08-.03-4.6-2.9-8.68-6.11-11.73-12.69-12.01-35.56-16.05-52.6-15.49-2.63.09-5.26.35-7.88.6-15.37.99-29.9,5.62-40.41,17.5-6.74,7.62-10.83,17.59-12.09,27.65Z" style="fill: #3f3936;"/>
    <path d="M2879.89,228.84c9.32-2.8,54.17,12.12,51.26,27.67-1.14,6.09,2.62,29.37-1.5,31.93-1.31-1.4-2.4-8.22-3.56-11.1-7.83-19.51-22.1-37.85-44.85-38.28-7.52-.14-15.29,2.04-20.7,7.56-21.66,27.9,12.23,59.47,32.77,77.14,27.48,23.64,70.38,61.32,34.08,98.39-14.25,14.55-33.3,17.74-52.96,17.61-14-.48-25.62-3.39-37.72-10.52-3.88-2.28-14.13-8.64-14.45-12.27-.42-4.68-1.27-34.53.22-37.04l1.62.72c1.65,3.64,1.92,7.11,3.19,10.55,8.93,24.2,33.59,44.89,60.6,37.76,8.81-2.32,14.77-7.25,19.27-15.03,15.12-26.12-16.41-50.62-32.77-66.71-23.98-23.17-66.6-56.31-44.1-94.08,7.11-11.94,19.8-19.83,33.25-22.26,5.28-.96,10.68-.57,16.09-1.95l.26-.07Z" style="fill: #3f3936;"/>
    <path d="M2491.66,255.83c-3.54-.04-10.76.33-13.41-1.47l-.2-1.61c1.1-1.6,6.16-4.64,8.47-7.72,6.36-8.46,11.81-16.97,19.54-24.19,3.82-3.57,8.68-15.37,13.79-17.09,3.47,3.14.08,21.79,1.7,26.9,1.9,5.97,11.27,2.7,15.45,3.16,5.04.56,35.52-1.02,38.34.52.68,6.98-9.97,15.23-11.04,20.33-4.71,2.03-35.18.97-43.06,1.1l-.07,92.58c-.02,17.67-1.05,36.96,1.55,54.21,1.45,9.61,14.03,17.63,23.5,17.37,15.46-.42,27.42-7.11,38.25-17.52l1.9.96c.44,1.69.58,2.36.74,4.1-1.46,1.26-7.61,8.47-9.13,10.26-17.24,20.42-60.48,33.66-77.38,6.7-12.07-19.26-8.99-55.68-8.95-78.04l.02-90.56Z" style="fill: #3f3936;"/>
    <path d="M2275.73,163.1c.89-.28,1.55-.11,2.49,0,5.56,7.76-8.61,230.49,8.01,271.64-9.16.79-25.89.36-35.62.4-1.11-1.05-1.42-1.81-1.44-3.35-.52-70.58.68-141.22-.47-211.79-.14-8.58-.64-17.47-2.85-25.77-.71-2.69-3.62-7.3-3.51-9.78,3.51-4.35,26.88-16.92,33.39-21.36Z" style="fill: #3f3936;"/>
    <path d="M2168.39,233.74c5.35-.26,30.67-.55,34.82.77,3.45,7.89.16,137.8,1.75,156.59.54,6.5.56,18.45,1.75,26.41.7,4.6,4.92,15.25,5,17.22-4.99.76-31.33.5-36.64.03.12-7.33.11-14.89,0-22.27-.76-52.16,1.51-104.57-1.61-156.65-.45-7.59-4.29-14.97-5.08-22.1Z" style="fill: #3f3936;"/>
    <path d="M2186.58,171.06c9.88-1.79,19.35,4.7,21.27,14.55,1.9,9.86-4.48,19.41-14.32,21.43-6.46,1.33-13.14-.92-17.49-5.89-4.34-4.97-5.68-11.89-3.5-18.11,2.17-6.23,7.54-10.8,14.03-11.98Z" style="fill: #3f3936;"/>
    <path d="M2584.47,402.41c3.93-5.43,14.93-19.51,15.97-25.97l1.36-1.06,1.33.41c-2.6,9.79-9.32,24.22-16.02,31.68-.16-1.74-.3-2.41-.74-4.1l-1.9-.96Z" style="fill: rgba(63, 57, 54, .91);"/>
    <path d="M2797.32,394.44c4.57-4.64,11.89-18.07,15.3-19.03,1.12,4.65-9.9,21.12-13.47,24.41-.13-2.45.88-2.77.42-4.61l-2.26-.77Z" style="fill: rgba(63, 57, 54, .85);"/>
  </g>
</svg>